<svg xmlns="http://www.w3.org/2000/svg" id="canvas" viewBox="384.328 509.191 1792.765 253.766"><path d="M 425.38,545.80 C 425.11 548.92, 425.82 553.33, 425.91 561.33 C 426.01 569.34, 426.01 574.99, 425.85 585.84 C 425.69 596.68, 425.60 603.97, 425.10 615.55 C 424.61 627.12, 424.23 633.33, 423.36 643.71 C 422.49 654.10, 421.82 659.19, 420.75 667.49 C 419.69 675.79, 418.98 679.80, 418.05 685.22 C 417.12 690.64, 416.21 692.66, 416.09 694.60 C 415.97 696.53, 416.71 696.72, 417.45 694.90 C 418.18 693.09, 418.79 690.96, 419.76 685.52 C 420.74 680.08, 421.33 676.02, 422.33 667.69 C 423.32 659.35, 423.91 654.24, 424.75 643.83 C 425.59 633.41, 426.00 627.20, 426.52 615.61 C 427.05 604.02, 427.17 596.72, 427.38 585.86 C 427.58 575.00, 427.56 569.34, 427.54 561.32 C 427.51 553.30, 427.68 548.86, 427.25 545.75 C 426.81 542.65, 425.64 542.69, 425.38 545.80" style="stroke: black; fill: black;"/><path d="M 397.53,530.75 C 399.28 530.04, 400.90 527.87, 405.07 525.53 C 409.25 523.20, 412.04 521.27, 418.40 519.08 C 424.76 516.90, 428.97 515.40, 436.86 514.61 C 444.75 513.82, 449.49 513.81, 457.84 515.14 C 466.19 516.47, 470.80 517.79, 478.61 521.25 C 486.42 524.72, 490.45 527.06, 496.88 532.48 C 503.31 537.89, 506.42 541.27, 510.77 548.34 C 515.12 555.41, 516.95 559.53, 518.64 567.85 C 520.34 576.17, 520.55 580.77, 519.25 589.94 C 517.95 599.12, 516.48 604.12, 512.15 613.71 C 507.82 623.29, 504.55 628.46, 497.59 637.88 C 490.64 647.29, 486.03 652.24, 477.37 660.80 C 468.72 669.36, 463.45 673.70, 454.32 680.67 C 445.18 687.63, 440.09 690.89, 431.70 695.62 C 423.32 700.35, 419.05 702.13, 412.39 704.32 C 405.72 706.52, 402.66 706.24, 398.38 706.59 C 394.11 706.94, 393.05 706.45, 391.00 706.08 C 388.95 705.71, 388.82 704.85, 388.13 704.75 C 387.43 704.65, 387.07 704.87, 387.54 705.59 C 388.01 706.30, 388.25 707.66, 390.46 708.32 C 392.67 708.99, 394.11 709.39, 398.60 708.91 C 403.10 708.44, 406.19 708.36, 412.94 705.94 C 419.70 703.53, 423.97 701.69, 432.40 696.84 C 440.82 691.98, 445.91 688.70, 455.08 681.66 C 464.25 674.63, 469.53 670.28, 478.23 661.67 C 486.94 653.07, 491.58 648.11, 498.61 638.63 C 505.64 629.15, 508.97 623.96, 513.38 614.27 C 517.80 604.57, 519.34 599.50, 520.70 590.15 C 522.06 580.81, 521.88 576.07, 520.16 567.54 C 518.45 559.01, 516.58 554.76, 512.13 547.50 C 507.69 540.24, 504.49 536.79, 497.92 531.24 C 491.35 525.69, 487.24 523.32, 479.28 519.75 C 471.32 516.19, 466.65 514.84, 458.13 513.41 C 449.61 511.99, 444.77 511.93, 436.68 512.62 C 428.59 513.31, 424.24 514.74, 417.66 516.86 C 411.08 518.99, 408.05 520.80, 403.78 523.25 C 399.51 525.70, 397.56 527.60, 396.31 529.10 C 395.06 530.60, 395.78 531.47, 397.53 530.75" style="stroke: black; fill: black;"/><path d="M 521.25,671.02 C 522.43 671.45, 523.90 671.90, 526.88 671.24 C 529.85 670.58, 531.90 669.74, 536.11 667.72 C 540.32 665.70, 543.19 664.38, 547.93 661.13 C 552.68 657.89, 555.37 655.72, 559.85 651.50 C 564.32 647.28, 566.67 644.66, 570.31 640.04 C 573.94 635.41, 575.71 632.83, 578.03 628.37 C 580.35 623.90, 581.37 621.57, 581.91 617.71 C 582.46 613.86, 582.31 611.73, 580.77 609.10 C 579.23 606.46, 577.55 605.07, 574.23 604.55 C 570.90 604.02, 568.49 604.50, 564.15 606.49 C 559.81 608.49, 557.10 610.25, 552.53 614.53 C 547.97 618.81, 545.29 621.92, 541.33 627.91 C 537.38 633.89, 535.26 637.82, 532.77 644.46 C 530.28 651.10, 529.31 654.93, 528.89 661.09 C 528.47 667.24, 528.85 670.45, 530.67 675.23 C 532.50 680.01, 534.21 682.20, 538.00 684.99 C 541.80 687.77, 544.50 688.55, 549.65 689.16 C 554.79 689.78, 557.94 689.43, 563.71 688.06 C 569.48 686.70, 572.71 685.37, 578.48 682.34 C 584.25 679.31, 587.26 677.22, 592.55 672.91 C 597.84 668.59, 600.47 665.88, 604.93 660.77 C 609.39 655.66, 611.46 652.57, 614.86 647.36 C 618.26 642.15, 619.86 638.94, 621.92 634.73 C 623.98 630.51, 624.79 628.27, 625.16 626.30 C 625.53 624.32, 624.43 623.78, 623.76 624.85 C 623.10 625.91, 622.31 627.72, 621.82 631.60 C 621.33 635.49, 621.17 638.83, 621.29 644.27 C 621.42 649.70, 621.61 653.36, 622.45 658.77 C 623.29 664.18, 623.84 667.05, 625.49 671.31 C 627.14 675.58, 628.18 677.48, 630.72 680.10 C 633.26 682.71, 634.96 683.77, 638.18 684.38 C 641.40 684.99, 643.39 684.72, 646.84 683.14 C 650.28 681.56, 652.04 680.06, 655.39 676.47 C 658.74 672.88, 660.44 670.34, 663.59 665.19 C 666.74 660.04, 668.37 656.61, 671.14 650.73 C 673.90 644.85, 675.29 641.28, 677.44 635.80 C 679.59 630.32, 680.48 627.51, 681.88 623.33 C 683.27 619.16, 684.22 616.73, 684.41 614.93 C 684.59 613.14, 683.78 612.85, 682.80 614.36 C 681.81 615.87, 681.01 618.37, 679.47 622.48 C 677.92 626.58, 677.18 629.43, 675.06 634.87 C 672.94 640.31, 671.63 643.88, 668.88 649.66 C 666.12 655.43, 664.44 658.82, 661.29 663.75 C 658.14 668.68, 656.31 671.07, 653.12 674.30 C 649.94 677.53, 648.21 678.60, 645.35 679.90 C 642.49 681.20, 641.28 681.22, 638.84 680.79 C 636.39 680.36, 635.21 679.87, 633.12 677.75 C 631.02 675.63, 629.87 674.09, 628.35 670.20 C 626.83 666.32, 626.20 663.52, 625.52 658.33 C 624.84 653.13, 624.90 649.52, 624.95 644.24 C 625.00 638.96, 625.66 635.78, 625.76 631.91 C 625.87 628.04, 626.05 626.23, 625.45 624.89 C 624.86 623.56, 624.02 623.54, 622.77 625.25 C 621.53 626.96, 621.21 629.26, 619.23 633.43 C 617.25 637.60, 616.06 640.91, 612.87 646.10 C 609.68 651.28, 607.64 654.33, 603.30 659.35 C 598.96 664.37, 596.35 667.03, 591.17 671.22 C 585.99 675.40, 583.02 677.40, 577.41 680.28 C 571.81 683.16, 568.63 684.36, 563.14 685.62 C 557.65 686.87, 554.68 687.10, 549.95 686.56 C 545.23 686.02, 542.92 685.34, 539.51 682.90 C 536.11 680.46, 534.60 678.70, 532.92 674.37 C 531.24 670.03, 530.74 667.06, 531.12 661.23 C 531.50 655.41, 532.38 651.64, 534.80 645.23 C 537.23 638.82, 539.34 634.94, 543.25 629.19 C 547.16 623.44, 549.90 620.45, 554.34 616.50 C 558.78 612.54, 561.57 611.09, 565.45 609.42 C 569.33 607.74, 571.25 607.87, 573.74 608.13 C 576.23 608.40, 576.89 608.91, 577.89 610.73 C 578.89 612.56, 579.20 613.99, 578.73 617.26 C 578.26 620.54, 577.65 622.88, 575.56 627.12 C 573.48 631.36, 571.80 633.98, 568.30 638.47 C 564.81 642.97, 562.48 645.56, 558.08 649.60 C 553.68 653.64, 550.99 655.69, 546.30 658.66 C 541.62 661.63, 538.76 662.75, 534.65 664.46 C 530.54 666.18, 528.51 666.31, 525.77 667.24 C 523.03 668.17, 521.85 668.34, 520.94 669.10 C 520.04 669.86, 520.06 670.60, 521.25 671.02" style="stroke: black; fill: black;"/><path d="M 706.34,660.24 C 707.61 660.57, 709.35 660.85, 712.21 659.94 C 715.07 659.03, 717.02 658.03, 720.64 655.69 C 724.26 653.34, 726.70 651.70, 730.32 648.22 C 733.94 644.73, 735.86 642.39, 738.75 638.25 C 741.63 634.11, 743.01 631.62, 744.75 627.52 C 746.49 623.41, 747.32 621.19, 747.45 617.72 C 747.57 614.26, 747.11 612.31, 745.38 610.21 C 743.64 608.10, 741.88 607.07, 738.78 607.20 C 735.68 607.33, 733.47 608.30, 729.88 610.87 C 726.29 613.45, 724.12 615.60, 720.81 620.08 C 717.51 624.57, 715.64 627.68, 713.36 633.30 C 711.07 638.92, 710.00 642.39, 709.39 648.18 C 708.78 653.96, 708.80 657.25, 710.30 662.22 C 711.80 667.20, 713.27 669.73, 716.88 673.06 C 720.49 676.39, 723.18 677.65, 728.35 678.89 C 733.51 680.13, 736.66 680.17, 742.70 679.26 C 748.75 678.36, 752.18 677.29, 758.57 674.36 C 764.96 671.43, 768.40 669.36, 774.65 664.61 C 780.90 659.85, 784.05 656.94, 789.80 650.58 C 795.54 644.21, 798.39 640.39, 803.38 632.80 C 808.38 625.21, 810.77 620.78, 814.77 612.64 C 818.77 604.50, 820.57 599.96, 823.38 592.09 C 826.20 584.22, 827.32 580.03, 828.85 573.28 C 830.37 566.52, 830.82 563.36, 831.02 558.32 C 831.22 553.27, 831.20 551.04, 829.85 548.06 C 828.49 545.09, 826.95 543.82, 824.25 543.45 C 821.54 543.08, 819.58 543.64, 816.31 546.20 C 813.03 548.77, 811.23 550.93, 807.86 556.27 C 804.48 561.60, 802.53 565.27, 799.42 572.88 C 796.32 580.49, 794.59 585.41, 792.33 594.32 C 790.08 603.24, 788.99 608.51, 788.16 617.45 C 787.34 626.38, 787.33 631.16, 788.21 639.00 C 789.08 646.83, 789.98 650.64, 792.55 656.63 C 795.12 662.62, 796.97 665.20, 801.05 668.94 C 805.12 672.69, 807.72 673.98, 812.92 675.38 C 818.12 676.77, 821.20 676.74, 827.05 675.92 C 832.89 675.09, 836.33 673.88, 842.15 671.25 C 847.98 668.62, 851.05 666.56, 856.18 662.75 C 861.30 658.95, 863.81 656.44, 867.79 652.22 C 871.77 648.01, 873.59 645.57, 876.07 641.69 C 878.55 637.81, 879.67 635.83, 880.19 632.82 C 880.71 629.82, 880.07 628.27, 878.67 626.67 C 877.27 625.07, 875.77 624.46, 873.18 624.84 C 870.58 625.21, 868.66 626.16, 865.68 628.55 C 862.71 630.93, 860.95 632.98, 858.31 636.78 C 855.67 640.57, 854.18 643.13, 852.48 647.53 C 850.78 651.94, 849.96 654.57, 849.82 658.79 C 849.67 663.01, 850.03 665.37, 851.75 668.64 C 853.48 671.91, 855.15 673.43, 858.45 675.15 C 861.75 676.87, 864.12 677.24, 868.24 677.24 C 872.36 677.25, 874.88 676.71, 879.06 675.18 C 883.24 673.65, 885.57 672.36, 889.15 669.58 C 892.73 666.81, 894.58 664.95, 896.96 661.30 C 899.35 657.65, 900.34 655.35, 901.08 651.34 C 901.82 647.34, 901.70 644.94, 900.67 641.27 C 899.64 637.60, 898.40 635.66, 895.93 632.99 C 893.45 630.32, 891.53 629.28, 888.29 627.92 C 885.05 626.56, 882.85 626.16, 879.73 626.19 C 876.62 626.22, 874.86 627.11, 872.71 628.08 C 870.56 629.04, 869.59 630.12, 868.99 631.02 C 868.39 631.92, 868.73 632.41, 869.71 632.58 C 870.69 632.75, 871.86 632.19, 873.87 631.88 C 875.88 631.57, 877.18 631.04, 879.76 631.04 C 882.33 631.05, 884.07 630.96, 886.74 631.90 C 889.41 632.83, 891.01 633.63, 893.09 635.71 C 895.17 637.79, 896.22 639.30, 897.13 642.30 C 898.05 645.30, 898.25 647.30, 897.66 650.73 C 897.06 654.16, 896.26 656.23, 894.15 659.46 C 892.04 662.70, 890.35 664.43, 887.10 666.92 C 883.84 669.40, 881.65 670.55, 877.87 671.90 C 874.10 673.24, 871.80 673.62, 868.24 673.63 C 864.69 673.64, 862.77 673.25, 860.09 671.93 C 857.41 670.60, 856.23 669.60, 854.86 667.00 C 853.49 664.40, 853.07 662.56, 853.24 658.93 C 853.41 655.29, 854.07 652.80, 855.71 648.82 C 857.35 644.84, 858.87 642.41, 861.43 639.04 C 863.99 635.68, 865.95 634.10, 868.49 631.99 C 871.04 629.87, 872.47 629.23, 874.14 628.46 C 875.81 627.70, 876.34 627.46, 876.84 628.17 C 877.34 628.89, 877.28 629.65, 876.63 632.05 C 875.97 634.44, 875.70 636.46, 873.56 640.16 C 871.43 643.85, 869.71 646.38, 865.96 650.52 C 862.20 654.67, 859.73 657.16, 854.77 660.87 C 849.82 664.59, 846.80 666.57, 841.18 669.10 C 835.57 671.64, 832.24 672.75, 826.71 673.56 C 821.17 674.36, 818.35 674.37, 813.51 673.13 C 808.67 671.89, 806.34 670.80, 802.50 667.35 C 798.66 663.90, 796.83 661.58, 794.31 655.87 C 791.80 650.16, 790.83 646.45, 789.94 638.80 C 789.04 631.15, 789.01 626.41, 789.83 617.60 C 790.65 608.80, 791.75 603.55, 794.04 594.76 C 796.34 585.98, 798.13 581.09, 801.32 573.68 C 804.52 566.27, 806.64 562.69, 810.03 557.69 C 813.43 552.70, 815.54 551.01, 818.32 548.71 C 821.10 546.41, 822.20 546.08, 823.95 546.19 C 825.70 546.29, 826.12 546.83, 827.06 549.25 C 827.99 551.66, 828.64 553.54, 828.62 558.26 C 828.60 562.99, 828.32 566.22, 826.95 572.87 C 825.58 579.52, 824.50 583.71, 821.78 591.52 C 819.05 599.33, 817.27 603.85, 813.32 611.93 C 809.37 620.00, 806.98 624.41, 802.03 631.90 C 797.07 639.40, 794.23 643.18, 788.52 649.42 C 782.82 655.66, 779.68 658.49, 773.51 663.09 C 767.34 667.69, 763.92 669.66, 757.69 672.42 C 751.46 675.19, 748.11 676.11, 742.36 676.91 C 736.62 677.71, 733.69 677.56, 728.95 676.41 C 724.20 675.26, 721.88 674.13, 718.64 671.15 C 715.40 668.17, 714.10 666.03, 712.76 661.49 C 711.42 656.95, 711.32 653.89, 711.93 648.46 C 712.55 643.02, 713.58 639.64, 715.84 634.34 C 718.10 629.03, 720.03 626.04, 723.25 621.94 C 726.48 617.84, 728.79 616.01, 731.96 613.83 C 735.13 611.64, 736.93 611.36, 739.12 611.02 C 741.30 610.69, 741.97 610.85, 742.89 612.15 C 743.81 613.45, 743.95 614.69, 743.72 617.51 C 743.48 620.33, 743.21 622.48, 741.70 626.27 C 740.20 630.05, 738.91 632.55, 736.17 636.45 C 733.43 640.34, 731.51 642.55, 728.00 645.74 C 724.48 648.92, 722.07 650.35, 718.60 652.38 C 715.13 654.41, 713.20 654.71, 710.65 655.88 C 708.10 657.06, 706.70 657.39, 705.84 658.26 C 704.98 659.13, 705.06 659.90, 706.34 660.24" style="stroke: black; fill: black;"/><path d="M 932.52,640.51 C 932.18 642.21, 932.67 644.35, 932.81 648.82 C 932.96 653.29, 933.21 656.28, 933.25 662.87 C 933.28 669.46, 933.31 673.90, 932.98 681.76 C 932.66 689.62, 932.30 694.23, 931.61 702.18 C 930.93 710.12, 930.43 714.46, 929.57 721.49 C 928.70 728.51, 928.17 732.13, 927.29 737.29 C 926.41 742.45, 925.55 744.71, 925.17 747.28 C 924.78 749.85, 925.32 750.64, 925.36 750.14 C 925.40 749.64, 925.53 748.58, 925.35 744.77 C 925.18 740.96, 924.53 737.81, 924.50 731.10 C 924.46 724.38, 924.39 719.67, 925.17 711.19 C 925.95 702.71, 926.52 697.54, 928.39 688.69 C 930.26 679.85, 931.54 675.03, 934.51 666.96 C 937.49 658.89, 939.39 654.87, 943.24 648.34 C 947.10 641.82, 949.42 638.90, 953.80 634.35 C 958.17 629.80, 960.68 628.03, 965.11 625.60 C 969.54 623.17, 971.99 622.58, 975.95 622.20 C 979.91 621.81, 981.89 622.35, 984.92 623.68 C 987.94 625.00, 989.34 626.22, 991.07 628.81 C 992.81 631.40, 993.47 633.14, 993.59 636.62 C 993.70 640.10, 993.38 642.27, 991.65 646.22 C 989.93 650.17, 988.42 652.49, 984.94 656.37 C 981.46 660.25, 978.89 662.37, 974.27 665.61 C 969.65 668.84, 966.62 670.45, 961.86 672.53 C 957.11 674.62, 954.20 675.01, 950.49 676.01 C 946.78 677.01, 945.43 677.11, 943.29 677.54 C 941.16 677.96, 940.53 677.79, 939.82 678.14 C 939.10 678.49, 938.98 678.84, 939.73 679.30 C 940.48 679.77, 941.26 680.47, 943.59 680.45 C 945.91 680.43, 947.47 680.27, 951.36 679.21 C 955.25 678.14, 958.13 677.39, 963.03 675.11 C 967.92 672.84, 971.02 671.19, 975.82 667.82 C 980.62 664.45, 983.30 662.34, 987.04 658.28 C 990.77 654.21, 992.51 651.84, 994.50 647.49 C 996.48 643.14, 997.09 640.64, 996.98 636.52 C 996.86 632.40, 996.09 630.04, 993.92 626.88 C 991.76 623.72, 989.81 622.22, 986.15 620.74 C 982.50 619.26, 980.08 618.89, 975.64 619.46 C 971.20 620.03, 968.63 620.87, 963.97 623.58 C 959.31 626.29, 956.81 628.22, 952.36 632.99 C 947.91 637.77, 945.61 640.78, 941.73 647.46 C 937.84 654.13, 935.96 658.21, 932.95 666.39 C 929.94 674.56, 928.66 679.41, 926.69 688.33 C 924.73 697.25, 924.11 702.43, 923.14 710.98 C 922.17 719.53, 922.06 724.24, 921.86 731.06 C 921.65 737.88, 921.55 741.12, 922.11 745.08 C 922.67 749.04, 923.47 750.27, 924.67 750.87 C 925.87 751.47, 927.09 750.71, 928.11 748.07 C 929.13 745.43, 929.06 742.94, 929.76 737.67 C 930.45 732.39, 930.83 728.78, 931.59 721.72 C 932.35 714.65, 932.85 710.32, 933.56 702.34 C 934.26 694.37, 934.68 689.75, 935.11 681.86 C 935.54 673.97, 935.62 669.51, 935.71 662.88 C 935.81 656.25, 935.83 653.21, 935.60 648.70 C 935.36 644.19, 935.14 641.99, 934.53 640.35 C 933.91 638.71, 932.86 638.82, 932.52 640.51" style="stroke: black; fill: black;"/><path d="M 1021.67,637.64 C 1021.26 638.96, 1021.51 640.33, 1021.52 644.08 C 1021.54 647.82, 1021.84 650.33, 1021.75 656.37 C 1021.66 662.41, 1021.64 666.52, 1021.06 674.29 C 1020.48 682.06, 1019.91 686.77, 1018.86 695.23 C 1017.81 703.68, 1017.09 708.47, 1015.81 716.56 C 1014.54 724.65, 1013.79 728.95, 1012.49 735.67 C 1011.20 742.40, 1010.29 745.71, 1009.33 750.19 C 1008.37 754.66, 1007.87 756.48, 1007.69 758.05 C 1007.51 759.62, 1008.32 759.80, 1008.44 758.03 C 1008.56 756.27, 1008.24 754.36, 1008.29 749.21 C 1008.33 744.06, 1008.16 740.05, 1008.66 732.28 C 1009.15 724.51, 1009.44 719.39, 1010.78 710.37 C 1012.11 701.34, 1013.05 696.11, 1015.33 687.15 C 1017.61 678.19, 1019.10 673.49, 1022.17 665.56 C 1025.24 657.63, 1027.05 653.80, 1030.69 647.52 C 1034.33 641.23, 1036.41 638.45, 1040.38 634.14 C 1044.34 629.83, 1046.59 628.20, 1050.51 625.98 C 1054.44 623.77, 1056.54 623.32, 1060.01 623.07 C 1063.48 622.83, 1065.16 623.42, 1067.87 624.77 C 1070.59 626.13, 1071.92 627.31, 1073.58 629.85 C 1075.25 632.39, 1075.89 634.08, 1076.18 637.45 C 1076.47 640.82, 1076.34 642.91, 1075.04 646.70 C 1073.74 650.49, 1072.54 652.71, 1069.67 656.40 C 1066.80 660.09, 1064.61 662.09, 1060.68 665.15 C 1056.75 668.21, 1054.14 669.66, 1050.00 671.71 C 1045.86 673.76, 1043.40 674.38, 1039.99 675.39 C 1036.57 676.40, 1034.30 676.13, 1032.93 676.75 C 1031.55 677.38, 1031.53 678.17, 1033.10 678.50 C 1034.66 678.84, 1037.11 679.24, 1040.77 678.44 C 1044.42 677.63, 1047.04 676.68, 1051.39 674.49 C 1055.74 672.30, 1058.37 670.73, 1062.51 667.49 C 1066.65 664.26, 1068.96 662.24, 1072.09 658.31 C 1075.22 654.37, 1076.64 652.04, 1078.17 647.82 C 1079.71 643.59, 1080.08 641.16, 1079.78 637.16 C 1079.47 633.16, 1078.74 630.91, 1076.66 627.81 C 1074.57 624.71, 1072.74 623.20, 1069.35 621.66 C 1065.97 620.12, 1063.76 619.67, 1059.74 620.10 C 1055.72 620.54, 1053.44 621.30, 1049.26 623.83 C 1045.07 626.36, 1042.86 628.19, 1038.83 632.75 C 1034.81 637.31, 1032.77 640.18, 1029.13 646.63 C 1025.49 653.07, 1023.71 656.95, 1020.63 664.97 C 1017.56 672.99, 1016.08 677.72, 1013.74 686.74 C 1011.41 695.76, 1010.46 701.02, 1008.97 710.09 C 1007.48 719.16, 1007.03 724.27, 1006.30 732.09 C 1005.56 739.91, 1005.31 743.91, 1005.28 749.19 C 1005.26 754.46, 1005.33 756.55, 1006.17 758.48 C 1007.02 760.41, 1008.36 760.37, 1009.51 758.82 C 1010.66 757.28, 1010.92 755.31, 1011.92 750.75 C 1012.92 746.19, 1013.36 742.82, 1014.50 736.03 C 1015.64 729.25, 1016.37 724.95, 1017.62 716.84 C 1018.86 708.73, 1019.60 703.94, 1020.72 695.47 C 1021.84 686.99, 1022.49 682.27, 1023.23 674.47 C 1023.98 666.67, 1024.14 662.55, 1024.44 656.46 C 1024.74 650.36, 1024.90 647.79, 1024.72 644.00 C 1024.55 640.20, 1024.18 638.76, 1023.57 637.49 C 1022.96 636.22, 1022.08 636.32, 1021.67 637.64" style="stroke: black; fill: black;"/><path d="M 1106.37,654.71 C 1107.49 655.29, 1109.01 655.81, 1111.81 655.58 C 1114.61 655.35, 1116.61 654.80, 1120.37 653.56 C 1124.13 652.32, 1126.64 651.49, 1130.59 649.38 C 1134.53 647.27, 1136.64 645.84, 1140.10 643.03 C 1143.56 640.21, 1145.29 638.49, 1147.88 635.32 C 1150.46 632.15, 1151.81 630.38, 1153.02 627.18 C 1154.24 623.97, 1154.55 622.07, 1153.94 619.32 C 1153.32 616.56, 1152.37 614.91, 1149.93 613.41 C 1147.50 611.91, 1145.48 611.39, 1141.76 611.80 C 1138.04 612.22, 1135.59 613.13, 1131.32 615.48 C 1127.05 617.83, 1124.43 619.71, 1120.40 623.55 C 1116.37 627.39, 1114.13 630.00, 1111.17 634.69 C 1108.22 639.39, 1106.83 642.20, 1105.61 647.02 C 1104.38 651.84, 1104.21 654.56, 1105.06 658.79 C 1105.92 663.02, 1107.07 665.20, 1109.88 668.18 C 1112.68 671.16, 1114.82 672.31, 1119.09 673.69 C 1123.35 675.06, 1126.07 675.31, 1131.19 675.06 C 1136.32 674.82, 1139.26 674.21, 1144.72 672.45 C 1150.17 670.68, 1153.10 669.30, 1158.47 666.23 C 1163.83 663.17, 1166.65 661.10, 1171.53 657.12 C 1176.41 653.14, 1178.84 650.56, 1182.85 646.34 C 1186.87 642.11, 1189.03 639.40, 1191.61 636.01 C 1194.20 632.61, 1195.17 630.82, 1195.79 629.37 C 1196.40 627.92, 1195.46 627.64, 1194.69 628.77 C 1193.92 629.89, 1192.85 631.63, 1191.92 634.98 C 1190.99 638.33, 1190.40 641.23, 1190.05 645.51 C 1189.69 649.79, 1189.52 652.52, 1190.16 656.39 C 1190.79 660.27, 1191.27 662.27, 1193.20 664.90 C 1195.13 667.53, 1196.68 668.59, 1199.81 669.55 C 1202.94 670.51, 1204.96 670.44, 1208.84 669.69 C 1212.71 668.93, 1214.93 667.97, 1219.18 665.76 C 1223.43 663.55, 1225.81 661.80, 1230.11 658.64 C 1234.41 655.49, 1236.83 653.31, 1240.69 649.98 C 1244.55 646.66, 1246.59 644.61, 1249.40 642.02 C 1252.21 639.43, 1253.38 638.20, 1254.75 637.02 C 1256.11 635.83, 1256.03 635.52, 1256.24 636.11 C 1256.45 636.70, 1255.79 637.71, 1255.79 639.97 C 1255.80 642.23, 1255.76 644.20, 1256.25 647.41 C 1256.74 650.61, 1257.12 652.69, 1258.24 655.99 C 1259.35 659.28, 1259.95 661.19, 1261.82 663.88 C 1263.69 666.57, 1264.91 667.90, 1267.59 669.45 C 1270.27 671.00, 1271.96 671.54, 1275.21 671.64 C 1278.47 671.74, 1280.35 671.27, 1283.85 669.95 C 1287.36 668.63, 1289.22 667.50, 1292.74 665.05 C 1296.27 662.61, 1298.13 660.87, 1301.48 657.72 C 1304.83 654.56, 1306.52 652.53, 1309.50 649.28 C 1312.47 646.02, 1314.13 644.01, 1316.35 641.44 C 1318.58 638.87, 1319.50 637.56, 1320.64 636.43 C 1321.78 635.30, 1321.74 635.12, 1322.06 635.79 C 1322.38 636.46, 1322.07 637.53, 1322.25 639.80 C 1322.44 642.07, 1322.56 644.00, 1323.00 647.13 C 1323.43 650.27, 1323.69 652.38, 1324.45 655.50 C 1325.20 658.62, 1325.53 660.37, 1326.79 662.74 C 1328.04 665.12, 1328.87 666.21, 1330.72 667.38 C 1332.57 668.55, 1333.75 668.89, 1336.05 668.59 C 1338.35 668.28, 1339.73 667.78, 1342.24 665.87 C 1344.74 663.95, 1345.80 662.20, 1348.57 659.02 C 1351.34 655.84, 1352.89 653.75, 1356.11 649.97 C 1359.33 646.19, 1361.16 643.84, 1364.66 640.11 C 1368.15 636.39, 1370.04 634.38, 1373.60 631.35 C 1377.17 628.33, 1379.01 626.96, 1382.48 624.99 C 1385.95 623.01, 1387.66 622.33, 1390.96 621.49 C 1394.25 620.65, 1396.02 620.89, 1398.95 620.80 C 1401.88 620.71, 1403.36 621.06, 1405.61 621.05 C 1407.85 621.05, 1409.21 621.17, 1410.18 620.77 C 1411.15 620.38, 1411.31 619.81, 1410.48 619.10 C 1409.65 618.39, 1408.37 617.72, 1406.03 617.21 C 1403.69 616.71, 1401.98 616.38, 1398.77 616.55 C 1395.56 616.73, 1393.55 616.94, 1389.97 618.08 C 1386.40 619.22, 1384.55 620.06, 1380.89 622.27 C 1377.22 624.47, 1375.35 625.93, 1371.67 629.09 C 1367.99 632.24, 1366.09 634.30, 1362.48 638.04 C 1358.87 641.78, 1356.99 644.12, 1353.63 647.77 C 1350.26 651.42, 1348.55 653.44, 1345.67 656.30 C 1342.78 659.15, 1341.29 660.31, 1339.20 662.05 C 1337.11 663.79, 1336.52 664.47, 1335.23 664.99 C 1333.94 665.51, 1333.58 665.44, 1332.75 664.63 C 1331.91 663.82, 1331.68 662.97, 1331.05 660.93 C 1330.43 658.89, 1330.12 657.35, 1329.62 654.42 C 1329.12 651.49, 1329.07 649.45, 1328.55 646.29 C 1328.03 643.13, 1328.01 641.09, 1327.02 638.62 C 1326.04 636.15, 1325.25 634.92, 1323.62 633.95 C 1321.99 632.97, 1320.93 632.77, 1318.87 633.74 C 1316.82 634.70, 1315.74 636.13, 1313.35 638.77 C 1310.95 641.42, 1309.73 643.67, 1306.89 646.96 C 1304.05 650.25, 1302.38 652.21, 1299.14 655.22 C 1295.90 658.23, 1294.02 659.82, 1290.69 662.00 C 1287.35 664.19, 1285.54 665.08, 1282.48 666.13 C 1279.41 667.17, 1277.89 667.33, 1275.35 667.25 C 1272.81 667.17, 1271.73 666.89, 1269.80 665.72 C 1267.86 664.54, 1267.03 663.59, 1265.65 661.36 C 1264.28 659.13, 1263.73 657.52, 1262.94 654.56 C 1262.15 651.60, 1262.22 649.63, 1261.72 646.55 C 1261.22 643.47, 1261.26 641.55, 1260.45 639.15 C 1259.63 636.76, 1259.12 635.55, 1257.65 634.59 C 1256.18 633.63, 1255.23 633.37, 1253.10 634.33 C 1250.97 635.29, 1249.88 636.74, 1246.99 639.41 C 1244.10 642.07, 1242.39 644.31, 1238.66 647.67 C 1234.92 651.02, 1232.51 653.15, 1228.31 656.17 C 1224.12 659.19, 1221.71 660.80, 1217.67 662.77 C 1213.64 664.74, 1211.49 665.41, 1208.15 666.01 C 1204.80 666.61, 1203.28 666.45, 1200.94 665.77 C 1198.60 665.09, 1197.78 664.59, 1196.43 662.61 C 1195.08 660.63, 1194.54 659.18, 1194.20 655.85 C 1193.87 652.53, 1194.29 649.97, 1194.77 645.99 C 1195.25 642.00, 1196.19 639.31, 1196.60 635.91 C 1197.02 632.51, 1197.35 630.59, 1196.84 628.98 C 1196.33 627.36, 1195.63 626.84, 1194.07 627.85 C 1192.51 628.86, 1191.66 630.67, 1189.04 634.02 C 1186.42 637.36, 1184.76 640.34, 1180.96 644.59 C 1177.16 648.84, 1174.76 651.37, 1170.02 655.28 C 1165.28 659.18, 1162.48 661.18, 1157.26 664.11 C 1152.04 667.04, 1149.16 668.32, 1143.92 669.93 C 1138.68 671.53, 1135.85 671.99, 1131.07 672.15 C 1126.30 672.32, 1123.83 671.96, 1120.04 670.73 C 1116.26 669.51, 1114.55 668.54, 1112.14 666.03 C 1109.73 663.52, 1108.75 661.85, 1107.99 658.19 C 1107.23 654.53, 1107.25 652.12, 1108.36 647.72 C 1109.47 643.32, 1110.72 640.59, 1113.54 636.20 C 1116.36 631.80, 1118.57 629.28, 1122.44 625.74 C 1126.32 622.21, 1128.97 620.52, 1132.93 618.53 C 1136.88 616.54, 1139.20 616.18, 1142.23 615.80 C 1145.26 615.42, 1146.46 615.79, 1148.07 616.63 C 1149.69 617.47, 1150.08 618.18, 1150.32 619.99 C 1150.56 621.81, 1150.33 623.10, 1149.28 625.72 C 1148.23 628.34, 1147.34 630.16, 1145.07 633.08 C 1142.80 636.00, 1141.15 637.73, 1137.91 640.32 C 1134.68 642.91, 1132.63 644.19, 1128.87 646.02 C 1125.11 647.85, 1122.67 648.46, 1119.11 649.47 C 1115.55 650.48, 1113.66 650.43, 1111.08 651.07 C 1108.50 651.71, 1107.16 651.95, 1106.22 652.68 C 1105.28 653.41, 1105.25 654.13, 1106.37 654.71" style="stroke: black; fill: black;"/><path d="M 1601.96,617.81 C 1601.18 617.03, 1600.17 616.15, 1597.68 615.83 C 1595.20 615.52, 1593.41 615.44, 1589.55 616.25 C 1585.68 617.06, 1583.14 617.64, 1578.35 619.89 C 1573.56 622.13, 1570.68 623.81, 1565.59 627.47 C 1560.50 631.13, 1557.47 633.56, 1552.91 638.17 C 1548.35 642.79, 1545.86 645.59, 1542.79 650.55 C 1539.72 655.52, 1538.36 658.33, 1537.55 663.00 C 1536.75 667.67, 1536.91 670.26, 1538.78 673.90 C 1540.66 677.54, 1542.63 679.16, 1546.93 681.19 C 1551.23 683.22, 1554.29 683.70, 1560.28 684.03 C 1566.27 684.36, 1570.00 684.01, 1576.89 682.85 C 1583.77 681.69, 1587.72 680.56, 1594.72 678.24 C 1601.72 675.92, 1605.48 674.29, 1611.88 671.25 C 1618.29 668.21, 1621.49 666.31, 1626.77 663.05 C 1632.04 659.79, 1634.37 657.88, 1638.27 654.96 C 1642.16 652.03, 1643.91 650.64, 1646.25 648.43 C 1648.60 646.22, 1649.04 644.90, 1650.00 643.90 C 1650.96 642.90, 1650.84 643.67, 1651.06 643.43 C 1651.28 643.20, 1651.57 643.00, 1651.11 642.72 C 1650.64 642.44, 1650.19 641.40, 1648.74 642.02 C 1647.29 642.64, 1646.27 643.64, 1643.84 645.81 C 1641.42 647.98, 1640.27 649.81, 1636.62 652.88 C 1632.97 655.95, 1630.70 657.86, 1625.57 661.16 C 1620.45 664.46, 1617.30 666.36, 1611.00 669.38 C 1604.69 672.40, 1600.96 674.01, 1594.07 676.25 C 1587.17 678.50, 1583.25 679.56, 1576.52 680.60 C 1569.80 681.65, 1566.12 681.87, 1560.44 681.48 C 1554.75 681.10, 1551.93 680.46, 1548.10 678.68 C 1544.26 676.91, 1542.85 675.66, 1541.27 672.61 C 1539.68 669.57, 1539.45 667.60, 1540.17 663.45 C 1540.90 659.30, 1542.02 656.57, 1544.91 651.86 C 1547.80 647.15, 1550.20 644.34, 1554.64 639.90 C 1559.08 635.45, 1562.11 633.05, 1567.11 629.63 C 1572.10 626.22, 1574.99 624.69, 1579.63 622.82 C 1584.26 620.95, 1586.71 620.85, 1590.29 620.30 C 1593.86 619.76, 1595.24 620.21, 1597.50 620.10 C 1599.77 619.98, 1600.70 620.19, 1601.60 619.73 C 1602.49 619.27, 1602.75 618.59, 1601.96 617.81" style="stroke: black; fill: black;"/><path d="M 1670.99,653.61 C 1670.38 654.30, 1670.26 655.19, 1670.02 656.79 C 1669.78 658.39, 1669.70 659.53, 1669.79 661.61 C 1669.87 663.70, 1669.85 665.24, 1670.45 667.22 C 1671.06 669.19, 1671.63 670.33, 1672.81 671.49 C 1673.99 672.65, 1674.78 673.09, 1676.34 673.02 C 1677.89 672.94, 1678.84 672.69, 1680.59 671.10 C 1682.35 669.50, 1683.04 668.05, 1685.10 665.06 C 1687.15 662.06, 1688.20 659.86, 1690.86 656.12 C 1693.51 652.38, 1695.18 650.06, 1698.36 646.35 C 1701.54 642.64, 1703.41 640.60, 1706.75 637.58 C 1710.09 634.55, 1711.86 633.15, 1715.08 631.22 C 1718.29 629.28, 1719.87 628.70, 1722.84 627.91 C 1725.80 627.11, 1727.15 627.16, 1729.90 627.25 C 1732.66 627.35, 1733.86 627.72, 1736.59 628.38 C 1739.33 629.04, 1740.67 629.62, 1743.57 630.55 C 1746.48 631.47, 1747.95 632.15, 1751.12 633.00 C 1754.29 633.85, 1755.98 634.36, 1759.43 634.80 C 1762.87 635.24, 1764.76 635.39, 1768.37 635.21 C 1771.98 635.03, 1773.94 634.82, 1777.47 633.90 C 1781.01 632.99, 1782.90 632.27, 1786.02 630.64 C 1789.15 629.02, 1790.86 627.99, 1793.10 625.78 C 1795.34 623.58, 1796.40 622.11, 1797.23 619.62 C 1798.06 617.13, 1798.12 615.48, 1797.25 613.32 C 1796.38 611.16, 1795.36 609.81, 1792.88 608.83 C 1790.39 607.84, 1788.42 607.65, 1784.83 608.39 C 1781.24 609.12, 1778.92 610.12, 1774.93 612.51 C 1770.93 614.90, 1768.57 616.67, 1764.87 620.32 C 1761.17 623.98, 1759.10 626.37, 1756.42 630.80 C 1753.75 635.23, 1752.45 637.85, 1751.50 642.48 C 1750.55 647.10, 1750.50 649.72, 1751.67 653.92 C 1752.84 658.13, 1754.14 660.28, 1757.34 663.48 C 1760.54 666.68, 1762.89 668.03, 1767.66 669.92 C 1772.44 671.81, 1775.38 672.43, 1781.22 672.93 C 1787.05 673.44, 1790.40 673.27, 1796.83 672.45 C 1803.26 671.64, 1806.83 670.79, 1813.36 668.87 C 1819.89 666.96, 1823.31 665.62, 1829.46 662.88 C 1835.62 660.15, 1838.77 658.40, 1844.14 655.20 C 1849.51 652.00, 1852.13 650.09, 1856.29 646.88 C 1860.46 643.67, 1862.45 642.05, 1864.95 639.16 C 1867.44 636.26, 1868.37 634.77, 1868.78 632.41 C 1869.20 630.06, 1868.69 628.70, 1867.02 627.39 C 1865.35 626.09, 1863.66 625.45, 1860.45 625.89 C 1857.24 626.33, 1855.01 627.43, 1850.95 629.60 C 1846.90 631.77, 1844.39 633.44, 1840.18 636.74 C 1835.98 640.04, 1833.53 642.29, 1829.93 646.10 C 1826.33 649.92, 1824.46 652.15, 1822.16 655.81 C 1819.87 659.47, 1818.82 661.38, 1818.46 664.42 C 1818.11 667.46, 1818.70 669.10, 1820.38 671.00 C 1822.06 672.90, 1823.71 673.80, 1826.86 673.91 C 1830.02 674.02, 1832.15 673.21, 1836.15 671.56 C 1840.14 669.91, 1842.48 668.53, 1846.83 665.67 C 1851.19 662.81, 1853.73 660.71, 1857.93 657.26 C 1862.13 653.80, 1864.55 651.36, 1867.83 648.39 C 1871.11 645.42, 1872.69 643.90, 1874.34 642.41 C 1875.98 640.93, 1875.87 640.38, 1876.05 640.96 C 1876.23 641.55, 1875.42 642.74, 1875.23 645.34 C 1875.04 647.93, 1874.90 650.24, 1875.11 653.93 C 1875.31 657.63, 1875.30 660.19, 1876.28 663.81 C 1877.25 667.43, 1877.86 669.51, 1879.98 672.03 C 1882.09 674.56, 1883.65 675.71, 1886.84 676.43 C 1890.04 677.15, 1891.97 677.00, 1895.96 675.63 C 1899.94 674.27, 1902.22 673.06, 1906.79 669.60 C 1911.35 666.14, 1913.83 663.82, 1918.80 658.34 C 1923.78 652.85, 1926.59 649.39, 1931.67 642.18 C 1936.76 634.97, 1939.46 630.54, 1944.23 622.27 C 1949.01 614.01, 1951.45 609.18, 1955.54 600.87 C 1959.64 592.56, 1961.55 588.04, 1964.71 580.71 C 1967.86 573.39, 1969.23 569.77, 1971.32 564.25 C 1973.42 558.72, 1974.57 556.09, 1975.18 553.10 C 1975.78 550.12, 1975.05 548.97, 1974.34 549.31 C 1973.63 549.64, 1972.74 550.87, 1971.61 554.76 C 1970.48 558.65, 1970.04 561.95, 1968.69 568.75 C 1967.34 575.55, 1966.43 580.31, 1964.85 588.75 C 1963.27 597.19, 1962.28 602.37, 1960.80 610.95 C 1959.32 619.53, 1958.59 624.10, 1957.44 631.63 C 1956.28 639.15, 1955.78 642.78, 1955.03 648.56 C 1954.27 654.34, 1953.96 657.02, 1953.64 660.53 C 1953.32 664.03, 1953.23 664.94, 1953.43 666.08 C 1953.62 667.23, 1954.07 667.32, 1954.61 666.27 C 1955.14 665.22, 1955.59 664.31, 1956.12 660.83 C 1956.64 657.34, 1956.60 654.61, 1957.23 648.83 C 1957.86 643.04, 1958.21 639.41, 1959.28 631.90 C 1960.36 624.39, 1961.08 619.81, 1962.59 611.26 C 1964.11 602.71, 1965.15 597.54, 1966.87 589.14 C 1968.60 580.75, 1969.69 576.03, 1971.24 569.30 C 1972.79 562.57, 1973.91 559.45, 1974.64 555.48 C 1975.38 551.52, 1975.35 550.11, 1974.91 549.47 C 1974.47 548.83, 1973.58 549.48, 1972.45 552.29 C 1971.32 555.10, 1971.13 557.96, 1969.26 563.51 C 1967.39 569.05, 1966.13 572.70, 1963.10 580.03 C 1960.07 587.36, 1958.16 591.88, 1954.10 600.16 C 1950.05 608.45, 1947.60 613.26, 1942.82 621.46 C 1938.05 629.65, 1935.33 634.05, 1930.21 641.14 C 1925.09 648.22, 1922.23 651.61, 1917.22 656.87 C 1912.22 662.12, 1909.64 664.29, 1905.18 667.40 C 1900.72 670.51, 1898.40 671.36, 1894.91 672.41 C 1891.43 673.46, 1890.07 673.23, 1887.75 672.64 C 1885.42 672.04, 1884.70 671.42, 1883.29 669.44 C 1881.89 667.46, 1881.35 665.91, 1880.72 662.75 C 1880.08 659.60, 1880.27 657.23, 1880.11 653.68 C 1879.96 650.13, 1880.49 647.83, 1879.94 645.02 C 1879.38 642.21, 1878.86 640.72, 1877.36 639.64 C 1875.86 638.55, 1874.79 638.36, 1872.42 639.61 C 1870.06 640.87, 1868.83 642.84, 1865.54 645.90 C 1862.26 648.96, 1860.08 651.50, 1855.98 654.90 C 1851.89 658.31, 1849.33 660.30, 1845.08 662.92 C 1840.84 665.55, 1838.42 666.67, 1834.76 668.01 C 1831.10 669.35, 1829.24 669.43, 1826.80 669.63 C 1824.35 669.83, 1823.47 669.93, 1822.53 669.01 C 1821.59 668.08, 1821.60 667.29, 1822.09 665.00 C 1822.59 662.71, 1822.97 660.90, 1824.98 657.54 C 1827.00 654.18, 1828.73 651.85, 1832.16 648.20 C 1835.59 644.56, 1838.04 642.35, 1842.15 639.32 C 1846.26 636.29, 1848.85 634.84, 1852.69 633.04 C 1856.52 631.24, 1858.71 631.01, 1861.32 630.31 C 1863.92 629.61, 1864.79 629.29, 1865.72 629.55 C 1866.64 629.81, 1866.60 630.13, 1865.95 631.63 C 1865.30 633.13, 1864.73 634.39, 1862.47 637.03 C 1860.21 639.67, 1858.57 641.60, 1854.66 644.84 C 1850.76 648.09, 1848.17 650.03, 1842.96 653.25 C 1837.74 656.46, 1834.62 658.20, 1828.58 660.91 C 1822.54 663.61, 1819.16 664.92, 1812.75 666.77 C 1806.34 668.61, 1802.81 669.41, 1796.55 670.13 C 1790.29 670.86, 1787.02 670.94, 1781.46 670.38 C 1775.89 669.81, 1773.12 669.10, 1768.72 667.30 C 1764.31 665.50, 1762.28 664.22, 1759.45 661.38 C 1756.61 658.55, 1755.57 656.78, 1754.55 653.12 C 1753.54 649.46, 1753.51 647.24, 1754.39 643.08 C 1755.27 638.93, 1756.42 636.44, 1758.96 632.35 C 1761.49 628.25, 1763.51 625.94, 1767.07 622.61 C 1770.63 619.29, 1773.01 617.69, 1776.74 615.72 C 1780.47 613.75, 1782.75 613.36, 1785.72 612.75 C 1788.70 612.15, 1789.96 612.34, 1791.62 612.70 C 1793.28 613.06, 1793.68 613.47, 1794.03 614.54 C 1794.38 615.61, 1794.22 616.47, 1793.38 618.04 C 1792.54 619.61, 1791.71 620.63, 1789.83 622.39 C 1787.95 624.16, 1786.67 625.37, 1783.99 626.87 C 1781.31 628.38, 1779.59 629.08, 1776.43 629.93 C 1773.27 630.77, 1771.47 630.95, 1768.18 631.09 C 1764.89 631.22, 1763.18 631.07, 1760.00 630.60 C 1756.82 630.14, 1755.31 629.63, 1752.30 628.76 C 1749.29 627.89, 1747.89 627.19, 1744.94 626.25 C 1741.99 625.31, 1740.56 624.68, 1737.56 624.06 C 1734.56 623.44, 1733.08 623.07, 1729.93 623.13 C 1726.78 623.19, 1725.12 623.31, 1721.80 624.36 C 1718.48 625.41, 1716.76 626.21, 1713.33 628.39 C 1709.89 630.56, 1708.12 632.08, 1704.64 635.24 C 1701.16 638.41, 1699.28 640.49, 1695.93 644.21 C 1692.58 647.93, 1690.83 650.25, 1687.88 653.85 C 1684.94 657.45, 1683.40 659.40, 1681.21 662.21 C 1679.01 665.02, 1678.03 666.21, 1676.92 667.89 C 1675.82 669.57, 1675.86 670.20, 1675.67 670.61 C 1675.48 671.01, 1675.81 670.78, 1675.98 669.91 C 1676.14 669.04, 1676.48 668.03, 1676.48 666.24 C 1676.47 664.45, 1676.31 662.95, 1675.96 660.95 C 1675.61 658.96, 1675.31 657.80, 1674.73 656.28 C 1674.16 654.76, 1673.81 653.90, 1673.06 653.37 C 1672.31 652.84, 1671.60 652.93, 1670.99 653.61" style="stroke: black; fill: black;"/><path d="M 1934.31,639.82 C 1935.41 640.14, 1936.41 640.15, 1939.36 639.63 C 1942.32 639.11, 1944.29 638.26, 1949.07 637.23 C 1953.86 636.20, 1957.12 635.60, 1963.29 634.49 C 1969.45 633.38, 1973.28 632.74, 1979.89 631.68 C 1986.51 630.61, 1990.16 629.99, 1996.36 629.17 C 2002.56 628.35, 2005.74 627.84, 2010.89 627.55 C 2016.05 627.26, 2018.49 627.09, 2022.13 627.72 C 2025.77 628.35, 2027.02 628.97, 2029.08 630.69 C 2031.15 632.42, 2031.61 633.62, 2032.47 636.36 C 2033.33 639.09, 2033.37 640.96, 2033.38 644.36 C 2033.38 647.77, 2032.88 650.01, 2032.49 653.38 C 2032.10 656.76, 2031.59 658.65, 2031.43 661.22 C 2031.28 663.79, 2031.34 665.18, 2031.72 666.24 C 2032.09 667.31, 2032.56 667.42, 2033.32 666.56 C 2034.08 665.70, 2034.79 664.46, 2035.51 661.93 C 2036.24 659.40, 2036.56 657.43, 2036.96 653.89 C 2037.36 650.36, 2037.68 648.02, 2037.50 644.25 C 2037.32 640.49, 2037.32 638.33, 2036.06 635.09 C 2034.80 631.84, 2033.90 630.08, 2031.20 628.02 C 2028.51 625.97, 2026.69 625.41, 2022.59 624.81 C 2018.49 624.21, 2016.03 624.61, 2010.72 625.02 C 2005.41 625.42, 2002.28 626.00, 1996.04 626.86 C 1989.81 627.72, 1986.17 628.34, 1979.53 629.32 C 1972.89 630.31, 1969.06 630.86, 1962.84 631.78 C 1956.63 632.69, 1953.32 633.13, 1948.45 633.92 C 1943.57 634.71, 1941.39 634.90, 1938.47 635.72 C 1935.55 636.54, 1934.68 637.21, 1933.84 638.03 C 1933.01 638.85, 1933.20 639.50, 1934.31 639.82" style="stroke: black; fill: black;"/><path d="M 2044.34,579.84 C 2045.03 580.11, 2045.44 580.26, 2045.57 580.10 C 2045.70 579.93, 2045.48 579.59, 2045.00 579.02 C 2044.52 578.45, 2043.87 577.59, 2043.19 577.23 C 2042.50 576.87, 2041.77 576.91, 2041.57 577.22 C 2041.36 577.52, 2041.60 578.23, 2042.16 578.75 C 2042.71 579.28, 2043.66 579.57, 2044.34 579.84" style="stroke: black; fill: black;"/><path d="M 2141.39,573.57 C 2142.68 572.64, 2144.32 570.95, 2146.01 567.80 C 2147.70 564.64, 2148.67 562.18, 2149.84 557.79 C 2151.00 553.41, 2151.85 550.37, 2151.85 545.87 C 2151.84 541.37, 2151.43 538.87, 2149.79 535.28 C 2148.16 531.69, 2146.75 529.79, 2143.67 527.92 C 2140.59 526.05, 2138.37 525.36, 2134.38 525.91 C 2130.40 526.46, 2128.08 527.35, 2123.76 530.66 C 2119.44 533.96, 2117.07 536.32, 2112.78 542.44 C 2108.49 548.56, 2106.21 552.57, 2102.31 561.26 C 2098.41 569.95, 2096.51 575.36, 2093.29 585.89 C 2090.07 596.41, 2088.64 602.60, 2086.22 613.87 C 2083.80 625.13, 2082.90 631.32, 2081.21 642.22 C 2079.52 653.11, 2078.97 658.70, 2077.76 668.34 C 2076.55 677.98, 2076.11 682.64, 2075.15 690.43 C 2074.19 698.22, 2073.80 701.93, 2072.97 707.27 C 2072.13 712.61, 2071.48 714.26, 2070.99 717.12 C 2070.50 719.99, 2070.42 720.65, 2070.53 721.60 C 2070.64 722.55, 2070.96 722.67, 2071.55 721.88 C 2072.15 721.09, 2072.80 720.51, 2073.51 717.65 C 2074.22 714.79, 2074.45 712.97, 2075.11 707.57 C 2075.77 702.16, 2075.99 698.43, 2076.80 690.62 C 2077.61 682.81, 2078.02 678.15, 2079.16 668.51 C 2080.30 658.87, 2080.83 653.29, 2082.50 642.42 C 2084.17 631.54, 2085.08 625.37, 2087.51 614.15 C 2089.94 602.92, 2091.40 596.75, 2094.66 586.31 C 2097.93 575.87, 2099.88 570.49, 2103.84 561.96 C 2107.81 553.43, 2110.19 549.50, 2114.49 543.66 C 2118.79 537.83, 2121.29 535.71, 2125.35 532.81 C 2129.41 529.90, 2131.50 529.51, 2134.79 529.12 C 2138.09 528.74, 2139.46 529.38, 2141.81 530.90 C 2144.16 532.41, 2145.27 533.73, 2146.55 536.72 C 2147.83 539.71, 2148.27 541.83, 2148.21 545.85 C 2148.14 549.87, 2147.35 552.75, 2146.22 556.81 C 2145.09 560.87, 2143.89 563.02, 2142.56 566.14 C 2141.23 569.26, 2139.81 570.94, 2139.57 572.42 C 2139.34 573.91, 2140.11 574.49, 2141.39 573.57" style="stroke: black; fill: black;"/><path d="M 2056.51,659.22 C 2058.72 658.90, 2061.18 657.37, 2066.94 655.75 C 2072.70 654.12, 2076.96 652.83, 2085.30 651.11 C 2093.65 649.38, 2099.32 648.37, 2108.65 647.13 C 2117.98 645.89, 2123.27 645.50, 2131.96 644.91 C 2140.65 644.31, 2145.32 644.35, 2152.10 644.16 C 2158.88 643.98, 2161.68 644.09, 2165.86 643.99 C 2170.04 643.88, 2171.58 643.98, 2173.01 643.65 C 2174.44 643.32, 2174.46 642.72, 2173.03 642.35 C 2171.59 641.99, 2170.04 641.87, 2165.84 641.84 C 2161.64 641.81, 2158.84 641.93, 2152.04 642.20 C 2145.24 642.47, 2140.56 642.55, 2131.83 643.18 C 2123.11 643.81, 2117.81 644.17, 2108.42 645.37 C 2099.04 646.57, 2093.33 647.52, 2084.91 649.18 C 2076.50 650.85, 2072.17 652.06, 2066.36 653.69 C 2060.55 655.32, 2057.83 656.22, 2055.86 657.33 C 2053.89 658.43, 2054.29 659.54, 2056.51 659.22" style="stroke: black; fill: black;"/></svg>