<svg id="Layer_1" data-name="Layer 1" xmlns="http://www.w3.org/2000/svg" viewBox="0 0 2426.2 2426.21"><path d="M2426.2,1213.1c0-2.22,0-4.44,0-6.65a1207.5,1207.5,0,0,0-203.57-666.26l1.34-.64-35.77-48.25a1218.22,1218.22,0,0,0-419.37-356.8q-7.85-4-15.76-8t-15.88-7.76l-8-3.79a1209.16,1209.16,0,0,0-156.32-60.69q-33.72-10.46-68-18.93-26.29-6.5-52.89-11.8l-.26-.05-.6-.12A1222,1222,0,0,0,1217.48,0h-.17c-2.77,0-5.69,0-8.38,0h-.14q-13.12,0-26.24.37A1219.69,1219.69,0,0,0,975.68,23.26q-27.31,5.41-54.32,12.08A1209.56,1209.56,0,0,0,426.9,289.23,1221.57,1221.57,0,0,0,238,491.3l-35.78,48.25,1.35.65A1207.42,1207.42,0,0,0,0,1206.45c0,2.21,0,4.43,0,6.65a1207.65,1207.65,0,0,0,202.53,671.32l-1.34.64,35.58,48.16c1.21,1.64,2.46,3.27,3.68,4.91,2.24,3,4.47,6,6.74,9,.73,1,1.48,1.92,2.22,2.88,2.79,3.64,5.58,7.28,8.41,10.88.55.71,1.11,1.4,1.66,2.1q4.56,5.77,9.17,11.52l1.27,1.55q4.84,6,9.75,11.89c.51.63,1,1.24,1.56,1.86,3.2,3.83,6.4,7.65,9.65,11.44l1.58,1.83c3.25,3.78,6.52,7.56,9.82,11.3.54.63,1.1,1.24,1.65,1.86q4.94,5.58,9.93,11.11c.58.65,1.18,1.28,1.76,1.92q5,5.46,10,10.89c.62.67,1.26,1.32,1.88,2q5,5.36,10.07,10.65c.66.69,1.34,1.36,2,2q5,5.24,10.13,10.41l2.07,2.07c3.4,3.42,6.8,6.84,10.24,10.22.71.71,1.43,1.39,2.15,2.09,3.43,3.36,6.86,6.71,10.33,10l2.24,2.12c3.46,3.29,6.91,6.57,10.41,9.81l2.32,2.14c3.48,3.22,7,6.44,10.49,9.62l2.45,2.18c3.5,3.15,7,6.28,10.54,9.39l2.48,2.15c3.41,3,6.83,6,10.27,8.9l.39.32.1.09c.87.75,1.76,1.47,2.64,2.22,3.52,3,7.06,6,10.62,8.93l3.14,2.57c3.45,2.83,6.9,5.67,10.37,8.47,1.19,1,2.39,1.88,3.57,2.83,3.36,2.68,6.72,5.36,10.1,8,1.34,1.05,2.69,2.08,4,3.12,3.25,2.52,6.5,5,9.78,7.53,1.46,1.11,2.94,2.19,4.41,3.29,3.18,2.39,6.36,4.79,9.56,7.15,1.58,1.16,3.18,2.3,4.77,3.46,3.11,2.27,6.22,4.54,9.35,6.78l5.08,3.58c3,2.16,6.11,4.33,9.18,6.46,1.78,1.23,3.58,2.44,5.37,3.66,3,2.06,6,4.13,9,6.17,1.88,1.26,3.78,2.49,5.66,3.74,3,2,5.91,3.94,8.88,5.88,2,1.27,3.93,2.52,5.9,3.79,2.92,1.87,5.84,3.76,8.77,5.62,2,1.29,4.11,2.55,6.16,3.83,2.88,1.79,5.75,3.59,8.64,5.36,2.14,1.31,4.29,2.59,6.43,3.88,2.83,1.7,5.65,3.42,8.49,5.1,2.23,1.32,4.46,2.6,6.69,3.9,2.79,1.63,5.57,3.26,8.37,4.87,2.29,1.31,4.59,2.59,6.89,3.88,2.76,1.56,5.51,3.13,8.28,4.66,2.36,1.31,4.74,2.59,7.12,3.88,2.72,1.48,5.43,3,8.17,4.44,2.45,1.31,4.91,2.59,7.37,3.89s5,2.63,7.44,3.91l.79.41.36.19,3.35,1.71,3.95,2,4.11,2.07,3.79,1.9,4.28,2.12,3.64,1.79,4.48,2.17c1.16.56,2.31,1.13,3.47,1.68l4.63,2.21,3.35,1.59,4.78,2.23c1.07.5,2.15,1,3.23,1.5,1.63.76,3.27,1.5,4.9,2.25l3.14,1.43,5,2.26,3.06,1.37,5.15,2.26,2.93,1.29,5.31,2.29,2.81,1.21,5.4,2.29,2.75,1.16,5.5,2.28,2.66,1.1,5.59,2.27,2.61,1.05,5.68,2.26,2.54,1c1.92.76,3.84,1.5,5.77,2.25l2.47,1,5.86,2.23,2.4.91c2,.75,4,1.48,6,2.22l2.3.86,6.06,2.2,2.25.82,6.15,2.19,2.18.77,6.22,2.16,2.13.74,6.29,2.13,2.08.7c2.14.72,4.27,1.42,6.41,2.12l2,.65c2.17.71,4.33,1.41,6.5,2.1l1.92.62,6.6,2.08,1.82.57,6.73,2.06,1.7.52c2.29.69,4.58,1.38,6.87,2l1.59.48,7,2,1.48.43,7.14,2,1.34.38,7.28,2,1.23.33c2.48.67,5,1.34,7.46,2l1,.28q3.83,1,7.65,2l.88.23c2.61.67,5.23,1.32,7.85,2l.53.14.15,0,1.78.45,6.44,1.55.59.14q4.23,1,8.48,2l.31.07c2.9.67,5.81,1.34,8.72,2l.1,0a1223,1223,0,0,0,531.44,0h0c3-.66,5.89-1.32,8.82-2l.2,0c2.87-.66,5.73-1.34,8.6-2l.44-.11,6.56-1.58,1.82-.46.1,0,.4-.1,8-2,.7-.18c2.61-.67,5.21-1.34,7.82-2l.89-.23q3.81-1,7.61-2l1.08-.29c2.47-.67,4.95-1.35,7.42-2l1.21-.34,7.27-2.06,1.37-.39,7.1-2.07,1.5-.44,7-2.08,1.62-.5c2.27-.69,4.55-1.38,6.82-2.09l1.73-.54,6.69-2.11,1.82-.58c2.2-.71,4.39-1.41,6.58-2.13l1.92-.63,6.47-2.14,2-.68q3.2-1.07,6.38-2.16l2.06-.71,6.29-2.19,2.11-.75c2.07-.73,4.15-1.46,6.22-2.21l2.18-.79c2-.74,4.09-1.48,6.12-2.23l2.26-.83,6-2.25,2.32-.88,5.94-2.26,2.39-.93,5.86-2.27,2.42-1c1.94-.77,3.87-1.53,5.8-2.31l2.47-1L1673,2336l2.51-1,5.66-2.35,2.55-1.07,5.59-2.37,2.63-1.13,5.5-2.37,2.68-1.18,5.41-2.39,2.76-1.23,5.32-2.39,2.79-1.28,5.25-2.4,2.85-1.33,5.17-2.41,2.91-1.39c1.69-.8,3.39-1.6,5.07-2.41l3-1.45,5-2.41,3-1.5,4.88-2.42,3.13-1.57,4.78-2.4,3.18-1.63q2-1,4-2l.44-.23c.24-.12.48-.24.71-.37,2.3-1.19,4.58-2.41,6.87-3.61,2.66-1.4,5.33-2.79,8-4.2s5.24-2.85,7.86-4.28c2.47-1.34,5-2.67,7.4-4,2.76-1.53,5.5-3.09,8.24-4.64,2.31-1.3,4.62-2.58,6.92-3.9,2.85-1.63,5.67-3.29,8.51-4.95,2.18-1.27,4.36-2.52,6.54-3.81,2.9-1.72,5.79-3.48,8.69-5.23,2.08-1.25,4.16-2.48,6.23-3.75,3-1.81,5.9-3.66,8.85-5.49l6-3.7c3-1.9,6-3.83,9-5.74,1.91-1.23,3.82-2.44,5.72-3.68,3-2,6-4,9-5.95,1.84-1.23,3.7-2.44,5.54-3.67,3-2,6-4.11,9-6.17,1.79-1.22,3.59-2.43,5.37-3.66,3-2.12,6.07-4.26,9.1-6.4l5.17-3.64c3.07-2.2,6.12-4.43,9.17-6.65,1.65-1.21,3.31-2.39,5-3.6,3.1-2.29,6.18-4.61,9.27-6.92,1.57-1.18,3.14-2.34,4.7-3.52,3.16-2.4,6.28-4.82,9.41-7.24,1.47-1.14,3-2.26,4.42-3.41,3.21-2.51,6.39-5.05,9.58-7.6,1.36-1.08,2.73-2.15,4.09-3.24,3.31-2.67,6.6-5.37,9.88-8.07,1.21-1,2.43-2,3.63-3q5.22-4.32,10.38-8.73c.95-.8,1.91-1.59,2.86-2.4l.11-.09.38-.32q5.12-4.38,10.16-8.81c.87-.75,1.74-1.49,2.6-2.25,3.53-3.1,7-6.23,10.52-9.37l2.46-2.19q5.3-4.8,10.53-9.66c.76-.7,1.53-1.39,2.28-2.09,3.54-3.29,7-6.61,10.54-10l2.11-2q5.28-5.05,10.5-10.2l2-1.91c3.5-3.45,7-6.94,10.43-10.43l1.87-1.86q5.33-5.4,10.57-10.87l1.55-1.59q5.29-5.52,10.5-11.1c.48-.52,1-1,1.46-1.54q5.23-5.64,10.41-11.33c.45-.5.91-1,1.36-1.48q5.31-5.86,10.54-11.8l1-1.17q5.26-6,10.45-12l1-1.09q5.4-6.32,10.72-12.71c.16-.2.32-.39.49-.58q5.19-6.26,10.3-12.59l.72-.87q5.28-6.54,10.47-13.16l.35-.45q4.8-6.11,9.5-12.29l1.14-1.47c2.41-3.17,4.79-6.37,7.17-9.57,1.08-1.45,2.18-2.88,3.25-4.34l35.58-48.15-1.34-.64A1207.65,1207.65,0,0,0,2426.2,1213.1Zm-355.41,711.16q-4.24,5.12-8.56,10.17l-1.53,1.79q-4.3,5-8.66,10c-.52.59-1,1.18-1.55,1.76q-4.38,5-8.82,9.91l-1.49,1.64q-4.52,5-9.06,9.9c-.44.46-.88.93-1.31,1.4q-4.51,4.85-9.09,9.65l-1.26,1.31q-4.41,4.62-8.87,9.17c-.53.53-1,1.07-1.57,1.61q-4.47,4.54-9,9l-2.16,2.15q-4.32,4.27-8.69,8.5l-2.6,2.51q-4.23,4.07-8.5,8.08l-2.93,2.75q-4.17,3.9-8.38,7.75l-3.19,2.9q-4.14,3.76-8.31,7.48l-3.39,3q-4.12,3.64-8.28,7.25l-3.54,3q-3.6,3.09-7.23,6.15l-4.69,3.94q-3.24,2.7-6.5,5.38l-5.5,4.48-6.19,5-5.79,4.6-6.2,4.85q-2.78,2.16-5.57,4.3-3.32,2.55-6.65,5.06-2.49,1.89-5,3.75-3.7,2.77-7.43,5.5l-5.28,3.85q-3.64,2.64-7.31,5.26l-5.52,3.91-5.75,4q-3.6,2.5-7.22,5l-4.47,3q-4.3,2.91-8.63,5.77l-4,2.62q-4.62,3-9.25,6l-3.71,2.37q-4.82,3.06-9.66,6.08c-1.17.73-2.33,1.46-3.51,2.18q-5,3.07-10,6.11l-3.32,2q-5.2,3.12-10.44,6.17l-3,1.77q-5.77,3.35-11.58,6.62l-2,1.14q-3.44,1.93-6.88,3.83l-.77.42q-6.49,3.59-13,7.08l-2.61,1.39q-5.62,3-11.29,5.92l-3,1.51q-5.5,2.83-11,5.59l-3.12,1.55q-5.46,2.7-11,5.35l-3.28,1.57q-5.42,2.6-10.87,5.12l-3.41,1.58q-5.36,2.48-10.76,4.88l-3.6,1.62c-3.5,1.55-7,3.07-10.51,4.59l-3.93,1.69q-4.47,1.92-9,3.79c-1.85.77-3.69,1.54-5.55,2.3l-6.78,2.76-6.5,2.59-8,3.12c-1.79.7-3.59,1.38-5.39,2.07q-4.55,1.73-9.12,3.43l-5.35,2q-4.58,1.67-9.16,3.3c-1.84.66-3.69,1.31-5.53,1.95q-4.47,1.56-9,3.09l-5.86,2q-4.21,1.41-8.44,2.79l-6.47,2.08-7.35,2.31q-3.81,1.2-7.64,2.35c-1.87.57-3.74,1.14-5.62,1.69q-4.71,1.41-9.44,2.77l-5.47,1.56q-4.83,1.36-9.67,2.68l-5.27,1.42q-4.95,1.33-9.92,2.61l-1.86.47a676.53,676.53,0,0,0,50.29-59.58c76.88-102.09,141.09-241,187.24-404.32,131.49,23.37,250.09,55.72,346.6,94.73ZM927.17,2289.58l-5.38-1.45q-4.78-1.32-9.56-2.66l-5.58-1.59q-4.68-1.35-9.34-2.73l-5.73-1.73q-3.68-1.11-7.34-2.25c-2.56-.8-5.12-1.6-7.67-2.42q-3.12-1-6.23-2-4.35-1.41-8.69-2.86L856,2268q-4.61-1.56-9.19-3.17l-5.3-1.86q-4.72-1.7-9.44-3.41l-5.08-1.87q-4.77-1.77-9.52-3.58l-5-1.92q-4.53-1.76-9-3.55l-5.45-2.17-6.92-2.81-4.23-1.76q-5.16-2.14-10.3-4.33l-3.45-1.49q-5.52-2.37-11-4.81l-3.24-1.45q-5.58-2.49-11.15-5.06l-3.1-1.43q-5.61-2.61-11.2-5.28l-3-1.43q-5.65-2.73-11.27-5.51l-2.83-1.4q-5.71-2.85-11.41-5.78l-2.61-1.34q-5.93-3-11.81-6.19l-2.11-1.11q-10.47-5.6-20.83-11.42l-1-.54q-6.35-3.57-12.65-7.23l-2.57-1.5q-5.48-3.2-10.91-6.45l-3-1.8q-5.19-3.14-10.35-6.32l-3.24-2q-5-3.1-10-6.27l-3.43-2.2q-4.8-3.08-9.55-6.2-1.86-1.21-3.71-2.44-4.5-3-9-6l-4.15-2.81q-3.87-2.64-7.73-5.33l-5.24-3.66q-2.83-2-5.66-4-3.6-2.58-7.19-5.17l-5.4-3.94c-2.44-1.8-4.89-3.6-7.32-5.42-1.71-1.27-3.4-2.55-5.1-3.83l-6.34-4.83q-3-2.27-5.89-4.55t-6-4.66l-6.05-4.8q-3-2.4-6-4.82t-5.72-4.66c-2.11-1.74-4.22-3.48-6.32-5.24l-4.89-4.1q-3.54-3-7.05-6c-1.21-1-2.42-2.07-3.63-3.12-2.75-2.37-5.48-4.77-8.2-7.17l-3.48-3.08q-4.12-3.67-8.23-7.41c-1.09-1-2.18-2-3.26-3q-4.19-3.83-8.32-7.69l-3-2.81q-4.25-4-8.45-8L437,2012.2q-4.33-4.18-8.64-8.44l-2.21-2.2c-3-3-6-6-8.93-9l-1.63-1.67q-4.43-4.53-8.81-9.1l-1.31-1.37q-4.54-4.77-9-9.6c-.45-.48-.9-.95-1.34-1.43q-4.54-4.9-9-9.87c-.51-.55-1-1.11-1.52-1.67q-4.42-4.91-8.8-9.88c-.52-.6-1.05-1.19-1.58-1.79q-4.35-5-8.64-10l-1.54-1.81q-4.31-5.06-8.56-10.16l-.66-.79c96.52-39,215.12-71.36,346.6-94.73C747.5,1992.08,811.71,2131,888.59,2233.06a679.65,679.65,0,0,0,50.28,59.58l-1.87-.48C933.72,2291.32,930.44,2290.45,927.17,2289.58ZM356.74,500.22Q361,495,365.4,489.91c.48-.55,1-1.11,1.42-1.66q4.41-5.16,8.87-10.27l1.27-1.44q4.57-5.21,9.19-10.35l1-1.06q4.81-5.33,9.67-10.59l.39-.42q4.93-5.34,9.94-10.6c.15-.15.29-.31.44-.47q4.92-5.18,9.9-10.27l1-1q4.81-4.93,9.68-9.78l1.32-1.32q4.79-4.76,9.62-9.45l1.48-1.44q4.81-4.65,9.67-9.24l1.51-1.43q4.89-4.59,9.82-9.13l1.42-1.3q5-4.59,10.08-9.12l1.17-1q5.22-4.65,10.49-9.24l.68-.59q11-9.56,22.26-18.8l.74-.61q5.37-4.41,10.81-8.76l1.21-1q5.29-4.23,10.63-8.37l1.49-1.16q5.26-4.08,10.59-8.11l1.59-1.2q5.31-4,10.67-7.94l1.57-1.15q5.41-4,10.87-7.85l1.38-1q5.58-4,11.21-7.87l1-.68q5.83-4,11.73-8l.3-.2q6-4,12.11-8l.36-.23q5.93-3.87,11.92-7.66l1-.65q5.77-3.65,11.6-7.23l1.43-.88q5.7-3.5,11.45-6.92l1.64-1q5.7-3.39,11.45-6.71l1.67-1q5.77-3.33,11.58-6.57l1.57-.88q5.89-3.28,11.84-6.5l1.28-.69q6.1-3.28,12.26-6.51l.72-.38q12.82-6.69,25.82-13l.79-.38q6.23-3,12.48-6l1.35-.64q6.09-2.87,12.22-5.66l1.67-.76q6-2.75,12.13-5.41l1.79-.78q6.07-2.66,12.18-5.24l1.76-.74q6.16-2.6,12.35-5.11l1.57-.63q6.32-2.56,12.68-5.05l1.14-.44q6.6-2.56,13.22-5l.39-.14q6.78-2.53,13.59-5l.41-.14q6.64-2.38,13.33-4.68l1.21-.42q6.45-2.21,12.93-4.33l1.65-.55q6.36-2.07,12.74-4.07l1.87-.59q6.33-2,12.69-3.87l1.94-.58q6.38-1.89,12.79-3.7l1.82-.52q6.49-1.83,13-3.58l1.52-.4q6.71-1.8,13.45-3.5l.91-.23,3.45-.85a674.28,674.28,0,0,0-51.08,60.27C812.34,294.16,748.16,432.57,702,595.37,570.82,572.09,452.46,539.88,356,501.06Zm1133.66-367c4.5,1.14,9,2.32,13.46,3.51l1.5.4q6.53,1.75,13,3.59l1.81.51q6.42,1.82,12.8,3.71l1.91.57c4.24,1.26,8.48,2.56,12.71,3.87l1.86.59q6.39,2,12.76,4.08l1.62.53c4.33,1.43,8.65,2.87,13,4.35l1.17.4q6.69,2.31,13.37,4.69l.38.14q6.84,2.44,13.65,5l.33.13q6.64,2.49,13.26,5.06l1.1.43c4.26,1.66,8.49,3.34,12.72,5.05l1.53.62q6.21,2.53,12.39,5.13l1.72.72q6.12,2.59,12.21,5.25l1.77.77q6.09,2.69,12.15,5.43l1.63.74q6.15,2.81,12.26,5.68l1.31.62q6.29,3,12.52,6l.74.37q13,6.36,25.88,13.07l.69.36q6.17,3.23,12.29,6.54l1.25.67q5.94,3.21,11.85,6.51l1.56.86q5.82,3.25,11.59,6.58l1.66,1q5.75,3.31,11.47,6.71l1.62,1q5.74,3.42,11.46,6.93l1.42.87q5.82,3.58,11.61,7.23l1,.65q6,3.79,11.93,7.66l.34.22q6.09,4,12.13,8l.29.19q5.9,4,11.75,8l1,.67q5.64,3.9,11.22,7.88l1.37,1q5.46,3.9,10.88,7.87l1.55,1.14q5.37,3.93,10.68,7.94l1.59,1.2q5.33,4,10.59,8.11l1.49,1.16q5.33,4.14,10.62,8.37l1.23,1q5.43,4.34,10.8,8.75l.75.62q11.24,9.23,22.25,18.79l.68.59q5.28,4.59,10.49,9.24l1.17,1q5.07,4.51,10.08,9.12l1.43,1.31q4.92,4.53,9.8,9.12l1.52,1.43q4.86,4.59,9.67,9.24l1.48,1.44q4.83,4.69,9.62,9.45l1.31,1.31q4.88,4.86,9.69,9.79l1,1q5,5.1,9.91,10.28c.14.15.29.3.43.46q5,5.26,10,10.62l.37.39q4.88,5.28,9.68,10.62c.32.34.63.68.94,1q4.64,5.16,9.21,10.38l1.24,1.41q4.48,5.11,8.91,10.31l1.37,1.6q4.38,5.16,8.7,10.36l.68.82c-96.44,38.84-214.79,71.05-345.91,94.32C1678,432.57,1613.86,294.16,1537.1,192.47A674.26,674.26,0,0,0,1486,132.19l3.49.86Zm313.86,1024.05c-1.75-80.9-7.3-161.1-16.58-239a2188.64,2188.64,0,0,0-38.9-226.71c55.41-10,108.69-21.49,159.43-34.51,83.09-21.32,158.1-46.32,223.61-74.49,117.43,170.55,183.94,367.6,194.08,574.75ZM1262.56,104.89c84,20.28,151.37,88.6,195.58,147.18,67.72,89.72,125.11,212.79,167.63,358.76q-27.24,3.74-55,7a3076.3,3076.3,0,0,1-308.2,19.75Zm-98.92,0V637.54a3076.1,3076.1,0,0,1-308.19-19.75q-27.76-3.22-55-7c42.51-146,99.9-269.05,167.62-358.76C1012.27,193.5,1079.65,125.18,1163.64,104.9ZM844,716.06a3177.77,3177.77,0,0,0,319.6,20.42v420.84H720.89c3.58-156.58,22.2-310.68,54.43-450.09Q809.25,712,844,716.06Zm319.6,540.19v431.27a3179,3179,0,0,0-320,20.48q-34.83,4.05-68.81,8.85c-32.8-142.66-51.35-300.47-54.18-460.6Zm-308.58,550a3079.86,3079.86,0,0,1,308.58-19.8v534.86c-84.19-20.33-151.73-89-196-147.78-67.87-90.12-125.32-213.71-167.8-360.28Q827.17,1809.51,855.06,1806.26Zm407.5,515.06V1786.46a3080.66,3080.66,0,0,1,308.61,19.8q27.87,3.24,55.22,7c-42.48,146.57-99.93,270.16-167.8,360.28C1414.29,2232.37,1346.75,2301,1262.56,2321.32Zm320-613.32a3177,3177,0,0,0-320-20.48V1256.25h443c-2.83,160.13-21.38,317.94-54.18,460.59Q1617.41,1712.06,1582.6,1708Zm-320-550.68V736.48a3178,3178,0,0,0,319.61-20.42q34.77-4,68.71-8.82c32.23,139.4,50.85,293.5,54.43,450.08ZM518,657.06c50.74,13,104,24.54,159.42,34.5a2186.16,2186.16,0,0,0-38.9,226.72c-9.28,77.94-14.83,158.14-16.58,239H100.3C110.44,950.19,177,753.14,294.39,582.57,359.89,610.73,434.9,635.73,518,657.06Zm103.69,599.19c1.4,83.72,6.87,166.77,16.33,247.44a2194.3,2194.3,0,0,0,38.91,228.84c-55.6,10-109,21.59-159.94,34.68-83.2,21.4-158.26,46.48-223.77,74.73-119.14-173.73-185.51-374.66-193.47-585.69Zm1287.54,511c-50.9-13.09-104.36-24.67-160-34.68a2194.3,2194.3,0,0,0,38.91-228.84c9.46-80.67,14.93-163.72,16.33-247.44h521.94c-8,211-74.33,412-193.47,585.69C2067.48,1813.68,1992.42,1788.61,1909.23,1767.21Z" fill="#231f20"/></svg>