<?xml version="1.0" encoding="UTF-8"?>
<svg id="PD" xmlns="http://www.w3.org/2000/svg" viewBox="0 0 265 93">
  <path id="d" d="M176.57,43.72c1.94,1.35,4.22,2.03,6.84,2.03,3.43,0,6.39-1.13,8.9-3.39l.36,1.39c.12,.48,.31,.83,.58,1.03,.26,.2,.64,.3,1.12,.3h4.84c.56,0,.96-.12,1.18-.36,.22-.24,.33-.63,.33-1.15V1.8c0-.56-.11-.96-.33-1.18-.22-.22-.62-.33-1.18-.33h-5.81c-.52,0-.91,.11-1.15,.33-.24,.22-.36,.62-.36,1.18V15.96c-2.34-1.82-5.1-2.72-8.29-2.72-3.91,0-7.06,1.5-9.44,4.51-2.38,3.01-3.57,7.01-3.57,12.01,0,3.15,.51,5.92,1.54,8.32,1.03,2.4,2.51,4.28,4.45,5.63Zm4.54-21.43c1.05-1.59,2.64-2.39,4.78-2.39,2.26,0,4.26,.5,5.99,1.51v15.98c-1.78,1.13-3.63,1.69-5.57,1.69-2.3,0-4.01-.79-5.11-2.36-1.11-1.57-1.66-3.97-1.66-7.2s.52-5.64,1.57-7.23Z"/>
  <path d="M228.59,15.75c-1.92-1.67-4.95-2.51-9.11-2.51-2.06,0-4.09,.17-6.08,.51-2,.34-3.7,.82-5.11,1.42-.57,.24-.93,.48-1.09,.73-.16,.24-.24,.69-.24,1.33v2.72c0,.93,.34,1.39,1.03,1.39,.08,0,.18,0,.3-.03,.12-.02,.24-.05,.36-.09,3.43-.97,6.52-1.45,9.26-1.45,2.06,0,3.47,.34,4.24,1.03,.77,.69,1.15,1.96,1.15,3.81v3.03c-2.34-.52-4.48-.79-6.42-.79-2.34,0-4.42,.39-6.23,1.18-1.82,.79-3.24,1.94-4.27,3.45-1.03,1.51-1.54,3.26-1.54,5.24,0,2.82,.9,5.08,2.69,6.78,1.8,1.69,4.19,2.54,7.17,2.54,1.53,0,3.12-.33,4.75-1,1.63-.67,3.08-1.56,4.33-2.69l.36,1.39c.12,.48,.31,.83,.57,1.03,.26,.2,.64,.3,1.12,.3h4.12c.56,0,.96-.12,1.18-.36,.22-.24,.33-.63,.33-1.15V23.65c0-3.59-.96-6.22-2.88-7.9Zm-5.3,21.88c-.93,.77-1.93,1.37-3,1.82-1.07,.44-2.11,.67-3.12,.67-1.25,0-2.22-.34-2.91-1.03-.69-.69-1.03-1.65-1.03-2.91,0-2.82,1.76-4.24,5.27-4.24,1.41,0,3,.14,4.78,.42v5.27Z"/>
  <path d="M263.85,14.15h-5.93c-.65,0-1.12,.12-1.42,.36-.3,.24-.54,.65-.7,1.21l-6.11,21.55-6.48-21.55c-.16-.56-.39-.97-.7-1.21-.3-.24-.78-.36-1.42-.36h-6.11c-.77,0-1.15,.3-1.15,.91,0,.32,.14,.83,.42,1.51l11.38,28.99-.18,.67c-.65,1.94-1.43,3.3-2.36,4.09-.93,.79-2.24,1.18-3.93,1.18-.48,0-.9-.02-1.24-.06-.34-.04-.7-.06-1.06-.06-.77,0-1.15,.46-1.15,1.39v2.85c0,.64,.09,1.11,.27,1.39,.18,.28,.53,.5,1.06,.67,1.49,.4,3,.61,4.54,.61,2.58,0,4.72-.71,6.42-2.12,1.69-1.41,3.13-3.71,4.3-6.9l12.29-32.68c.28-.69,.42-1.19,.42-1.51,0-.6-.38-.91-1.15-.91Z"/>
  <path d="M17.58,13.29c-1.77,0-3.51,.34-5.23,1.03-1.71,.68-3.17,1.61-4.38,2.78l-.42-1.57c-.2-.89-.77-1.33-1.69-1.33H1.51c-.52,0-.91,.11-1.15,.33-.24,.22-.36,.61-.36,1.18V56.01c0,.56,.12,.96,.36,1.18,.24,.22,.62,.33,1.15,.33H7.31c.56,0,.96-.11,1.18-.33,.22-.22,.33-.61,.33-1.18v-13.23c1.05,.93,2.32,1.65,3.81,2.18,1.49,.52,3.06,.79,4.71,.79,2.5,0,4.71-.67,6.65-2.03,1.93-1.35,3.46-3.27,4.59-5.77,1.13-2.5,1.69-5.42,1.69-8.76,0-4.87-1.14-8.74-3.41-11.6-2.28-2.86-5.37-4.29-9.28-4.29Zm2.15,23.51c-1.07,1.53-2.73,2.3-4.99,2.3s-4.15-.54-5.92-1.63v-15.89c1.85-1.09,3.83-1.63,5.92-1.63,2.3,0,3.97,.77,5.02,2.3,1.05,1.53,1.57,3.97,1.57,7.31s-.53,5.72-1.6,7.25Z"/>
  <path d="M54.5,13.9h-.85c-1.61,0-3.13,.37-4.56,1.12-1.43,.75-2.95,2-4.56,3.78l-.79-3.26c-.2-.89-.76-1.33-1.69-1.33h-4.35c-.52,0-.91,.11-1.15,.33-.24,.22-.36,.61-.36,1.18v27.86c0,.52,.12,.91,.36,1.15,.24,.24,.62,.36,1.15,.36h5.8c.56,0,.96-.12,1.18-.36,.22-.24,.33-.62,.33-1.15V23.26c.93-.4,2.05-.73,3.38-1,1.33-.26,2.46-.39,3.38-.39,.68,0,1.25,.02,1.69,.06,.44,.04,.81,.06,1.09,.06,.56,0,.96-.12,1.18-.36,.22-.24,.33-.62,.33-1.15v-5.08c0-.56-.12-.96-.36-1.18-.24-.22-.64-.33-1.21-.33Z"/>
  <path d="M64.75,9.43c1.53,0,2.76-.42,3.69-1.27,.93-.85,1.39-1.99,1.39-3.44s-.46-2.6-1.39-3.44c-.93-.85-2.16-1.27-3.69-1.27s-2.76,.42-3.69,1.27c-.93,.85-1.39,1.99-1.39,3.44s.46,2.6,1.39,3.44c.93,.85,2.15,1.27,3.69,1.27Z"/>
  <path d="M61.84,14.2c-.52,0-.91,.11-1.15,.33-.24,.22-.36,.61-.36,1.18v27.86c0,.52,.12,.91,.36,1.15,.24,.24,.62,.36,1.15,.36h5.8c.56,0,.96-.12,1.18-.36,.22-.24,.33-.62,.33-1.15V15.71c0-.56-.11-.96-.33-1.18-.22-.22-.61-.33-1.18-.33h-5.8Z"/>
  <path d="M78.15,45.08h5.8c.56,0,.96-.12,1.18-.36,.22-.24,.33-.62,.33-1.15V21.69c2.18-1.09,4.39-1.63,6.65-1.63,2.46,0,3.69,1.37,3.69,4.11v19.4c0,.52,.12,.91,.36,1.15s.62,.36,1.15,.36h5.8c.56,0,.96-.12,1.18-.36,.22-.24,.33-.62,.33-1.15V21.63c2.21-1.05,4.41-1.57,6.59-1.57,2.46,0,3.69,1.37,3.69,4.11v19.4c0,.52,.12,.91,.36,1.15,.24,.24,.62,.36,1.15,.36h5.8c.56,0,.96-.12,1.18-.36,.22-.24,.33-.62,.33-1.15V22.24c0-2.82-.78-5.02-2.33-6.59-1.55-1.57-3.74-2.36-6.56-2.36-1.93,0-3.81,.3-5.62,.91-1.81,.6-3.75,1.59-5.8,2.96-1.49-2.58-4.05-3.87-7.67-3.87-1.81,0-3.58,.29-5.29,.88-1.71,.58-3.64,1.58-5.77,2.99l-.48-1.63c-.2-.89-.76-1.33-1.69-1.33h-4.35c-.52,0-.91,.11-1.15,.33-.24,.22-.36,.61-.36,1.18v27.86c0,.52,.12,.91,.36,1.15,.24,.24,.62,.36,1.15,.36Z"/>
  <path id="e" d="M144.68,45.98c3.3,0,6.42-.56,9.37-1.69,.52-.2,.88-.43,1.06-.69,.18-.26,.27-.72,.27-1.36v-2.78c0-.93-.34-1.39-1.03-1.39-.08,0-.18,.01-.3,.03-.12,.02-.24,.05-.36,.09-1.89,.48-3.37,.8-4.44,.94-1.07,.14-2.17,.21-3.29,.21-2.82,0-4.93-.58-6.31-1.75-1.39-1.17-2.21-3.1-2.45-5.8,1.69,.44,3.69,.66,5.98,.66,4.43,0,7.78-.78,10.06-2.33,2.28-1.55,3.41-3.84,3.41-6.86s-1.06-5.44-3.17-7.25c-2.12-1.81-5.05-2.72-8.79-2.72-4.87,0-8.68,1.49-11.42,4.47-2.74,2.98-4.11,7.09-4.11,12.33s1.34,9.04,4.02,11.78c2.68,2.74,6.52,4.11,11.51,4.11Zm-.66-26.59c3.02,0,4.53,1.27,4.53,3.81,0,1.29-.46,2.25-1.39,2.87-.93,.62-2.42,.94-4.47,.94s-3.77-.16-5.38-.48c.6-4.75,2.84-7.13,6.71-7.13Z"/>
  <path d="M188.31,69.81c-18.24,7.74-38.06,11.48-56.09,11.48-26.73,0-52.61-7.33-73.53-19.51-1.83-1.06-3.19,.81-1.67,2.19,19.4,17.51,45.03,28.03,73.49,28.03,20.31,0,43.89-6.38,60.16-18.39,2.69-1.99,.39-4.97-2.36-3.8Z"/>
  <path d="M178.04,63.05c-1.43,1.01-1.19,2.39,.4,2.2,5.24-.63,16.92-2.03,19,.63,2.08,2.67-2.31,13.64-4.28,18.55-.6,1.48,.68,2.08,2.02,.96,8.73-7.3,10.98-22.6,9.2-24.81-1.77-2.19-17.03-4.08-26.34,2.46Z"/>
</svg>