<svg width="1067" height="235" viewBox="0 0 1067 235" fill="none" xmlns="http://www.w3.org/2000/svg">
<path d="M256.162 131.23C244.022 137.63 234.212 144.39 226.402 151.25C226.002 150.46 225.592 149.66 225.182 148.86C211.482 122.29 206.112 119.11 201.772 118.12L194.442 116.46L193.102 123.85C185.722 164.47 170.012 210.38 157.502 213.72C150.562 215.57 145.072 215.35 140.842 212.97C142.712 211.92 144.522 210.74 146.242 209.43C159.892 199.04 165.472 182.58 161.952 163.06C158.162 142.05 152.262 131.45 143.372 129.71C139.822 129.01 132.912 129.34 126.562 139.35C117.392 153.78 111.872 183.97 118.622 205.3C110.722 206.34 102.902 205.39 97.5316 202.81C92.8716 200.57 85.4816 191.09 78.7416 181.92C87.3016 165.82 94.7615 144.82 101.852 122.95C113.712 122.41 125.312 117.13 135.732 107.29C156.552 87.64 168.382 52.74 161.052 32.6C157.462 22.72 149.752 16.95 139.342 16.34C121.592 15.24 111.402 44.87 94.9316 97.22C93.8616 100.61 92.7816 104.05 91.6816 107.51C90.3216 107.15 88.9316 106.7 87.5216 106.14C80.5716 99.67 78.0515 90.64 80.0415 79.28C82.8715 63.1 93.5815 49.44 97.3615 47.98C101.152 46.83 103.302 42.84 102.172 39.04C101.032 35.23 97.0416 33.07 93.2216 34.2C82.8116 37.3 70.2516 56.13 66.3216 74.49C62.5516 92.14 67.0316 107.51 78.9516 117.78L79.7915 118.5L80.8016 118.94C82.9516 119.87 85.1116 120.63 87.2716 121.24C81.6516 138.41 75.6516 155.27 69.1916 168.86C57.8116 153.54 47.5316 141.79 36.7016 143.74C13.1316 147.98 2.42157 169.22 0.411568 186.12C-1.71843 204.06 4.54157 219.01 16.3516 224.21C26.1216 228.51 42.8616 227.73 67.1116 199.57C68.3016 198.19 69.4716 196.7 70.6216 195.12C77.8016 204.62 84.6916 212.6 91.3016 215.78C100.152 220.03 113.112 221.39 125.632 218.67C131.592 225.89 142.422 232.63 161.222 227.62C183.742 221.62 198.212 168.79 204.362 140.86C207.902 146.71 212.032 154.53 215.772 162.04C199.482 181.43 197.642 200.65 203.062 214.25C206.842 223.74 214.132 229.55 221.692 229.54C223.022 229.54 224.362 229.36 225.692 228.99C231.882 227.26 245.532 218.81 238.652 177.72L238.522 176.94L238.222 176.2C238.022 175.72 236.002 171.11 233.002 164.73C240.182 157.84 249.912 150.78 262.882 143.93C266.402 142.08 267.742 137.72 265.892 134.21C264.032 130.72 259.682 129.37 256.162 131.23ZM108.662 101.56C114.732 82.27 120.472 64.04 126.162 50.5C134.102 31.63 138.502 30.73 138.502 30.72C143.132 30.99 145.912 33.1 147.532 37.54C152.392 50.91 143.982 79.72 125.852 96.84C121.012 101.41 114.502 105.99 106.692 107.79C107.352 105.71 108.002 103.63 108.662 101.56ZM56.2016 190.19C42.1916 206.46 29.4616 214.27 22.1416 211.05C16.5216 208.58 13.3916 198.81 14.6916 187.83C16.1216 175.81 23.4016 160.77 39.0116 157.93C43.4616 158.38 54.5616 173.21 61.5916 182.84C59.8316 185.6 58.0316 188.07 56.2016 190.19ZM137.532 197.99C135.932 199.21 134.202 200.27 132.382 201.19C125.482 180.19 134.602 149.31 140.782 144.3C142.052 145.82 145.122 150.83 147.792 165.63C150.372 179.95 146.922 190.84 137.532 197.99ZM221.822 215.15C221.172 215.35 218.362 213.79 216.432 208.94C213.652 201.96 213.762 190.17 222.762 176.76C223.452 178.29 224.062 179.69 224.592 180.93C228.872 207.34 223.142 214.78 221.822 215.15Z" fill="#010202"/>
<path d="M731.122 53.56C721.912 51.82 713.642 59.49 700.672 75.19C698.142 78.25 698.572 82.79 701.632 85.32C704.692 87.85 709.232 87.4201 711.762 84.3601C722.412 71.4801 726.702 68.39 728.412 67.82C731.262 70.37 735.762 83.9601 737.962 90.6101C738.962 93.6301 741.772 95.5501 744.792 95.5501C745.542 95.5501 746.302 95.4301 747.052 95.1801C750.822 93.9301 752.872 89.8601 751.622 86.0901C745.162 66.5501 741.022 55.41 731.122 53.56Z" fill="#010202"/>
<path d="M1054.74 102.19C1050.47 105.4 1045.36 108.27 1039.46 111.6C1027.41 118.39 1012.88 126.59 998.702 141.74C985.282 130.33 977.602 111.19 979.112 102.43L980.402 94.94L972.852 94.06C965.372 93.18 964.032 99.39 961.372 111.76C957.542 129.55 950.412 162.67 931.902 188.75L931.402 189.56C924.262 203.14 915.662 210.33 907.282 209.77C906.522 209.72 905.762 209.61 905.002 209.43C912.362 200.47 918.032 189.45 921.682 179.36C932.432 159.82 933.222 141.17 923.612 132.84C917.652 127.67 906.332 124.73 886.242 140.04L885.582 140.61C868.102 157.65 867.982 180.28 873.702 195.78C875.782 201.42 878.672 206.43 882.132 210.62C880.842 211.33 879.532 211.91 878.212 212.34C872.292 214.28 866.252 213.26 859.892 209.3C859.262 204.66 861.392 191.01 862.832 181.75C867.292 153.09 869.302 136.63 858.742 131.71C849.602 127.45 839.562 136.91 830.072 147.77L829.852 148.04C829.022 149.08 828.232 150.13 827.472 151.18C827.012 148.37 826.422 145.9 825.682 143.9C823.952 139.24 821.292 136.21 817.762 134.89L816.152 134.29L814.442 134.48C803.722 135.67 792.942 147.07 781.412 169.76C785.242 135.59 784.032 123.44 775.102 120.68C768.132 118.51 764.372 123.41 755.282 135.22C751.012 140.77 745.152 148.38 736.802 158.5C736.312 159.09 735.832 159.67 735.352 160.24C734.592 158.35 733.712 156.54 732.642 154.87C728.982 149.14 717.842 136.68 693.572 144.6L692.612 144.99C671.022 155.69 664.372 169.7 662.612 179.57C661.142 187.79 662.492 196.2 666.422 204.2C655.952 213.45 647.632 217.19 642.912 214.71C639.442 212.89 631.312 204.45 630.722 165.8C632.922 152.53 634.402 137.87 635.462 122.69C659.932 120 684.412 117.47 708.752 115.11C712.712 114.73 715.602 111.21 715.222 107.25C714.842 103.29 711.332 100.39 707.362 100.78C683.782 103.06 660.072 105.51 636.362 108.11C636.742 100.95 637.042 93.74 637.292 86.55C637.402 83.3 637.522 79.97 637.632 77.75C637.962 75.29 638.052 74.52 638.072 73.88L638.312 66.43L630.862 66.45C624.022 66.47 623.472 73.22 623.292 76.38C623.232 76.79 623.172 77.24 623.102 77.72C621.542 89.15 620.252 99.91 619.232 110.02C600.102 112.17 580.992 114.39 562.022 116.72C558.082 117.2 555.272 120.79 555.752 124.74C556.202 128.39 559.302 131.06 562.882 131.06C563.172 131.06 563.472 131.04 563.772 131C581.732 128.8 599.802 126.7 617.902 124.65C616.722 139.49 616.192 152.73 616.332 164.38C609.642 203.66 599.942 210.65 595.792 211.76C591.122 212.44 587.872 211.89 586.102 210.15C580.712 204.83 583.222 186.74 585.052 173.52C587.472 156.1 589.562 141.05 580.332 134.51C572.142 128.71 560.842 134.52 557.002 136.51C550.972 139.78 545.932 144.9 541.742 151.04C541.702 125.66 537.422 118.22 531.072 115.88C523.392 113.05 518.322 119.03 511.912 126.6C508.622 130.48 504.552 135.3 498.972 140.93C491.022 133.52 478.672 131.35 464.652 135C460.232 136.15 455.602 137.94 451.042 140.29C452.062 137.11 452.882 134.38 453.492 132.28C458.892 113.69 458.012 112.05 456.792 109.78L455.082 106.67L451.662 106.06C445.542 104.98 443.072 110.52 441.592 113.84C438.962 119.78 435.912 125.69 430.192 127.41C430.152 127.41 430.122 127.41 430.082 127.41C421.442 127.41 416.682 121.63 410.002 112.27C406.632 107.54 402.952 102.42 398.102 99.22C408.342 76.32 421.062 55.89 438.612 38.83C469.502 58.72 513.062 79.1 553.812 39.06C556.642 36.27 556.682 31.72 553.902 28.88C551.112 26.04 546.562 26 543.722 28.79C513.212 58.77 481.902 48.57 449.922 28.84C456.872 23.3 464.482 18.2 472.882 13.6C476.372 11.69 477.642 7.32001 475.732 3.83001C473.822 0.340006 469.452 -0.929969 465.962 0.980031C455.242 6.85003 445.722 13.41 437.182 20.58C435.672 19.56 434.162 18.54 432.652 17.5L431.692 16.84L430.582 16.52C396.012 6.46001 366.622 23.36 350.642 42.53C333.322 63.3 328.802 88.66 338.842 108.71C340.102 111.23 342.642 112.69 345.282 112.69C346.362 112.69 347.462 112.45 348.502 111.93C352.052 110.15 353.492 105.83 351.712 102.27C344.272 87.41 348.102 68.05 361.702 51.74C374.602 36.27 398.072 22.58 425.482 30.03C425.742 30.21 426.022 30.4 426.282 30.58C407.492 49.41 394.142 71.73 383.432 96.57C376.592 98.12 369.292 103.32 360.492 112.8C357.782 115.71 357.952 120.27 360.872 122.97C363.782 125.68 368.342 125.5 371.042 122.59C372.352 121.18 373.572 119.93 374.712 118.83C367.262 139.56 360.942 161.68 354.362 184.75C347.962 202.72 341.772 207.46 339.382 207.46C339.382 207.46 339.382 207.46 339.372 207.46C337.212 207.45 333.562 203.56 331.072 196.36C325.922 181.48 327.492 160.07 340.572 149.71C343.692 147.24 344.212 142.72 341.742 139.6C339.272 136.48 334.742 135.96 331.632 138.43C313.162 153.06 310.532 181.02 317.472 201.07C322.032 214.24 329.992 221.82 339.322 221.85C339.342 221.85 339.362 221.85 339.382 221.85C350.722 221.85 360.352 210.91 367.992 189.34L368.132 188.91C375.802 162 383.112 136.42 392.312 113.02C394.212 114.95 396.212 117.72 398.282 120.62C404.872 129.85 413.942 142.51 431.512 141.77L432.202 141.74L432.872 141.58C433.872 141.34 434.832 141.05 435.752 140.72C433.942 146.08 431.832 151.81 429.492 157.54C424.702 163.43 421.012 170.26 419.272 177.95C418.402 181.83 420.832 185.68 424.702 186.55C428.582 187.43 432.432 184.99 433.312 181.12C434.142 177.44 435.682 173.98 437.692 170.75C439.152 170.01 440.382 168.79 441.072 167.17C441.382 166.45 441.682 165.73 441.982 165.01C449.052 157.07 459.072 151.32 468.262 148.92C476.792 146.7 483.942 147.38 488.322 150.75C453.502 171.84 444.152 196.08 446.792 210.54C448.292 218.79 453.662 224.51 461.162 225.84C474.012 228.14 488.562 217.27 501.082 196.03L501.612 194.93C508.932 175.67 509.152 162.52 506.572 153.62C513.972 146.41 519.132 140.31 522.882 135.88C523.952 134.61 525.092 133.27 526.112 132.12C528.862 144.23 526.612 177.6 524.342 199.5C523.102 206.63 522.472 212.63 522.242 216.32C522.202 216.57 522.162 216.8 522.122 217.03L522.202 217.05C522.112 218.79 522.112 219.9 522.192 220.21L523.582 225.65L534.812 225.6L536.172 220.16C536.412 219.19 537.442 211.63 538.542 201.27C541.812 183.26 549.192 157.1 563.712 149.23C568.852 146.59 571.232 146.37 572.002 146.37C573.812 149.74 571.932 163.32 570.792 171.54C568.162 190.45 565.452 210.01 575.992 220.4C581.212 225.54 588.702 227.4 598.272 225.94L598.792 225.84C608.192 223.67 615.272 215.5 620.612 203.28C623.912 215.69 629.092 223.71 636.172 227.43C639.312 229.08 642.632 229.91 646.162 229.91C654.432 229.91 663.822 225.31 674.522 216.14C674.952 216.63 675.382 217.12 675.832 217.6L676.622 218.44L677.632 218.99C684.772 222.86 691.862 224.78 698.582 224.78C708.252 224.78 717.172 220.81 724.442 213C732.872 203.94 737.642 191.21 738.222 179C741.122 175.7 744.292 171.94 747.852 167.64C756.362 157.33 762.302 149.62 766.642 143.98C767.492 142.88 768.322 141.79 769.132 140.76C769.112 154.15 765.852 178.73 764.082 192.12C763.152 199.17 762.342 205.26 761.872 209.77C761.602 212.41 761.302 215.34 761.642 217.91L760.682 223.04L767.072 224.8C773.532 226.58 775.612 220.87 777.132 216.71C795.032 167.73 807.072 154.02 812.712 150.21C814.262 155.41 814.582 165.91 814.282 177.04C807.272 198.68 809.942 217.03 811.022 219.63L812.762 223.69L821.762 224.68L824.072 220.45C825.592 217.67 828.052 198.68 828.622 179.66C831.212 172.28 835.132 164.5 840.972 157.09C846.392 150.9 849.882 147.88 851.932 146.41C852.612 153.46 850.132 169.41 848.552 179.52C844.712 204.19 843.302 215.3 850.362 220.29C860.932 227.48 872.092 229.45 882.622 226.01C886.492 224.75 890.152 222.79 893.582 220.31C897.582 222.51 901.872 223.83 906.272 224.12C914.582 224.67 930.462 221.81 943.852 196.68C959.102 175.02 967.072 149.68 971.792 130.57C976.062 138.7 982.052 146.59 989.392 152.77C981.462 163.32 973.862 176.54 967.102 193.46C963.932 201.41 954.272 225.61 967.372 233.06C969.392 234.21 971.552 234.73 973.782 234.73C983.502 234.73 994.652 224.96 1002.23 215.09C1015.42 197.92 1024.4 171.73 1009.3 151.4C1021.93 137.97 1034.97 130.62 1046.46 124.14C1052.54 120.71 1058.28 117.47 1063.31 113.7C1066.49 111.32 1067.14 106.81 1064.75 103.63C1062.43 100.45 1057.91 99.8 1054.74 102.19ZM488.432 189.28C477.002 208.44 467.282 212.34 463.742 211.7C462.332 211.45 461.412 210.2 461.012 207.98C459.472 199.52 467.062 181.2 493.802 164.34C493.912 170.98 492.122 179.43 488.432 189.28ZM720.512 162.6C722.422 165.59 723.472 169.4 723.802 173.55C717.852 179.95 713.432 183.68 711.002 183.51C706.352 182.57 703.852 180.15 703.352 176.11C702.642 170.36 706.482 162.02 713.932 158.57C714.372 158.37 714.782 158.12 715.162 157.85C717.332 158.88 719.132 160.43 720.512 162.6ZM685.562 206.87C678.442 198.96 675.332 190.2 676.782 182.09C678.132 174.56 683.262 167.73 691.742 162.05C689.452 167.08 688.422 172.57 689.072 177.87C690.362 188.22 697.642 195.62 708.572 197.68L708.932 197.74C712.362 198.21 715.542 197.76 718.902 196.19C717.522 198.77 715.872 201.15 713.972 203.19C706.352 211.37 696.802 212.61 685.562 206.87ZM893.062 201.25C890.692 198.33 888.672 194.78 887.202 190.79C883.082 179.62 883.072 163.4 895.312 151.21C906.092 143.08 912.492 142.25 914.172 143.71C916.662 145.87 917.692 156.97 908.812 172.87L908.312 173.97C904.952 183.45 899.562 193.63 893.062 201.25ZM998.892 192.88C992.122 208.32 980.172 218.39 975.142 220.06C974.962 217.71 975.382 211.71 980.532 198.81C986.432 184.03 992.952 172.4 999.752 163.05C1005.23 173.15 1002.57 184.49 998.892 192.88Z" fill="#010202"/>
</svg>
