<svg xmlns="http://www.w3.org/2000/svg" viewBox="0 0 970.49 215.43" height="1.5em"><defs></defs><path d="M493.74,529a13,13,0,0,1-3.9-9.6V334.33a13.55,13.55,0,0,1,3.9-9.75,12.79,12.79,0,0,1,9.6-4.05,13.83,13.83,0,0,1,13.8,13.8v185.1a12.8,12.8,0,0,1-4,9.6,13.55,13.55,0,0,1-9.75,3.9A13,13,0,0,1,493.74,529Z" transform="translate(-489.84 -319)" fill="hsla(226, 92.4%, 58.6%, 1)"></path><path d="M613.88,521.38a94,94,0,0,1-37.5-37.5q-13.65-24.45-13.65-57.15t13.65-57.15a94,94,0,0,1,37.5-37.5Q637.73,319,667.73,319q20.4,0,36.46,4.8a155.26,155.26,0,0,1,31.94,13.8q6.6,3.6,6.6,11.4a11.2,11.2,0,0,1-3.29,8,11.52,11.52,0,0,1-8.71,3.45,11.91,11.91,0,0,1-5.4-1.2,137,137,0,0,0-25.8-10.5,106.23,106.23,0,0,0-29.09-3.6q-25.82,0-44,10.65a68.29,68.29,0,0,0-27.29,29.1Q590,403.33,590,426.73t9.16,41.85a68.29,68.29,0,0,0,27.29,29.1q18.15,10.65,44,10.65a106.23,106.23,0,0,0,29.09-3.6,137,137,0,0,0,25.8-10.5,13,13,0,0,1,14.11,2.1,11,11,0,0,1,3.29,8.1q0,7.8-6.6,11.4a155.26,155.26,0,0,1-31.94,13.8q-16.07,4.8-36.46,4.8Q637.73,534.43,613.88,521.38Z" transform="translate(-489.84 -319)" fill="hsla(226, 92.4%, 58.6%, 1)"></path><path d="M815.34,520.63a94.4,94.4,0,0,1-36.6-38.1q-12.91-24.3-13.5-55.8.59-31.5,13.5-55.8a94.4,94.4,0,0,1,36.6-38.1Q839,319,870.54,319t55.05,13.8a95.67,95.67,0,0,1,36.6,38.25q13,24.45,13.65,55.65-.62,31.2-13.65,55.65a95.67,95.67,0,0,1-36.6,38.25q-23.57,13.8-55.05,13.8T815.34,520.63Zm96.9-22.5a71.07,71.07,0,0,0,27-29.4q9.28-18.6,9.3-42t-9.3-42a71.07,71.07,0,0,0-27-29.4q-17.72-10.8-41.7-10.8-24.3,0-41.85,10.8a71.18,71.18,0,0,0-26.85,29.4q-9.32,18.6-9.3,42t9.3,42a71.18,71.18,0,0,0,26.85,29.4q17.55,10.8,41.85,10.8Q894.53,508.93,912.24,498.13Z" transform="translate(-489.84 -319)" fill="hsla(226, 92.4%, 58.6%, 1)"></path><path d="M1018.08,380.1q13-28.5,37.5-44.8t57.16-16.3q32.68,0,57.14,16.3t37.5,44.8q13,28.48,13,64.32,0,24.36-4.8,43.53a206.07,206.07,0,0,1-13.8,38.17q-3.6,7.88-11.4,7.88a10.32,10.32,0,0,1-7.94-3.94c-2.31-2.63-2.49-10.06-2.46-10.39a64.32,64.32,0,0,1,1.21-6.45c2.76-10.22,5.09-20.79,7.5-30.82a150.88,150.88,0,0,0,3.59-34.76q0-30.83-10.65-52.49c-7.1-14.46-14.8-25.33-27.1-32.61s-26.25-10.93-41.84-10.93-29.56,3.64-41.86,10.93-19,18.15-26.1,32.61-10.65,31.94-10.65,52.49a149.71,149.71,0,0,0,3.61,34.76c2.39,10,4.26,20.6,7.5,30.82a16.74,16.74,0,0,1,1.19,6.45q0,6.45-3.3,10.39A10.2,10.2,0,0,1,1035,534q-7.8,0-11.4-7.88a206.07,206.07,0,0,1-13.8-38.17q-4.79-19.17-4.8-43.53Q1005,408.58,1018.08,380.1Zm164.41,150c-2.31-2.63-3.49-5.06-2.46-10.39.13-.66,1-5.67,1.21-6.45" transform="translate(-489.84 -319)" fill="hsla(226, 92.4%, 58.6%, 1)"></path><path d="M1299.83,520.63a94.54,94.54,0,0,1-36.6-38.1q-12.9-24.3-13.5-55.8.6-31.5,13.5-55.8a94.54,94.54,0,0,1,36.6-38.1q23.7-13.8,55.2-13.8t55,13.8a95.6,95.6,0,0,1,36.6,38.25q13,24.45,13.65,55.65-.6,31.2-13.65,55.65a95.6,95.6,0,0,1-36.6,38.25q-23.55,13.8-55,13.8T1299.83,520.63Zm96.9-22.5a70.93,70.93,0,0,0,27-29.4q9.3-18.6,9.3-42t-9.3-42a70.93,70.93,0,0,0-27-29.4q-17.7-10.8-41.7-10.8-24.3,0-41.85,10.8a71.24,71.24,0,0,0-26.85,29.4q-9.3,18.6-9.3,42t9.3,42a71.24,71.24,0,0,0,26.85,29.4q17.55,10.8,41.85,10.8Q1379,508.93,1396.73,498.13Z" transform="translate(-489.84 -319)" fill="hsla(226, 92.4%, 58.6%, 1)"></path></svg>